<svg width="1440" height="1024" viewBox="0 0 1440 1024" fill="none" xmlns="http://www.w3.org/2000/svg">
<g clip-path="url(#clip0_1_188)">
<path d="M1463 -30.0001H-12V1024H1463V-30.0001Z" fill="white"/>
<g filter="url(#filter0_f_1_188)">
<path d="M603.378 1159.7C1010.69 1159.7 1340.88 740.243 1340.88 222.814C1340.88 -294.616 1010.69 -714.075 603.378 -714.075C196.068 -714.075 -134.122 -294.616 -134.122 222.814C-134.122 740.243 196.068 1159.7 603.378 1159.7Z" fill="#A2D2FF"/>
</g>
<g filter="url(#filter1_f_1_188)">
<path d="M304.157 1593.61C711.467 1593.61 1041.66 1174.15 1041.66 656.721C1041.66 139.291 711.467 -280.168 304.157 -280.168C-103.153 -280.168 -433.343 139.291 -433.343 656.721C-433.343 1174.15 -103.153 1593.61 304.157 1593.61Z" fill="#CDB4DB"/>
</g>
<g filter="url(#filter2_f_1_188)">
<path d="M762.868 1098.74C1170.18 1098.74 1500.37 679.281 1500.37 161.851C1500.37 -355.578 1170.18 -775.037 762.868 -775.037C355.558 -775.037 25.368 -355.578 25.368 161.851C25.368 679.281 355.558 1098.74 762.868 1098.74Z" fill="#FFC8DD"/>
</g>
<g filter="url(#filter3_f_1_188)">
<path d="M250.523 1061.09C657.833 1061.09 988.023 641.628 988.023 124.198C988.023 -393.231 657.833 -812.69 250.523 -812.69C-156.786 -812.69 -486.976 -393.231 -486.976 124.198C-486.976 641.628 -156.786 1061.09 250.523 1061.09Z" fill="#FFAFCC"/>
</g>
<g filter="url(#filter4_f_1_188)">
<path d="M662.657 1769.32C1069.97 1769.32 1400.16 1349.86 1400.16 832.435C1400.16 315.006 1069.97 -104.454 662.657 -104.454C255.347 -104.454 -74.8426 315.006 -74.8426 832.435C-74.8426 1349.86 255.347 1769.32 662.657 1769.32Z" fill="#BDE0FE"/>
</g>
</g>
<defs>
<filter id="filter0_f_1_188" x="-456.122" y="-1036.08" width="2119" height="2517.78" filterUnits="userSpaceOnUse" color-interpolation-filters="sRGB">
<feFlood flood-opacity="0" result="BackgroundImageFix"/>
<feBlend mode="normal" in="SourceGraphic" in2="BackgroundImageFix" result="shape"/>
<feGaussianBlur stdDeviation="161" result="effect1_foregroundBlur_1_188"/>
</filter>
<filter id="filter1_f_1_188" x="-755.343" y="-602.168" width="2119" height="2517.78" filterUnits="userSpaceOnUse" color-interpolation-filters="sRGB">
<feFlood flood-opacity="0" result="BackgroundImageFix"/>
<feBlend mode="normal" in="SourceGraphic" in2="BackgroundImageFix" result="shape"/>
<feGaussianBlur stdDeviation="161" result="effect1_foregroundBlur_1_188"/>
</filter>
<filter id="filter2_f_1_188" x="-296.632" y="-1097.04" width="2119" height="2517.78" filterUnits="userSpaceOnUse" color-interpolation-filters="sRGB">
<feFlood flood-opacity="0" result="BackgroundImageFix"/>
<feBlend mode="normal" in="SourceGraphic" in2="BackgroundImageFix" result="shape"/>
<feGaussianBlur stdDeviation="161" result="effect1_foregroundBlur_1_188"/>
</filter>
<filter id="filter3_f_1_188" x="-808.976" y="-1134.69" width="2119" height="2517.78" filterUnits="userSpaceOnUse" color-interpolation-filters="sRGB">
<feFlood flood-opacity="0" result="BackgroundImageFix"/>
<feBlend mode="normal" in="SourceGraphic" in2="BackgroundImageFix" result="shape"/>
<feGaussianBlur stdDeviation="161" result="effect1_foregroundBlur_1_188"/>
</filter>
<filter id="filter4_f_1_188" x="-396.843" y="-426.454" width="2119" height="2517.78" filterUnits="userSpaceOnUse" color-interpolation-filters="sRGB">
<feFlood flood-opacity="0" result="BackgroundImageFix"/>
<feBlend mode="normal" in="SourceGraphic" in2="BackgroundImageFix" result="shape"/>
<feGaussianBlur stdDeviation="161" result="effect1_foregroundBlur_1_188"/>
</filter>
<clipPath id="clip0_1_188">
<rect width="1475" height="1054" fill="white" transform="translate(-12 -30.0001)"/>
</clipPath>
</defs>
</svg>
