<svg width="514" height="649" viewBox="0 0 514 649" fill="none" xmlns="http://www.w3.org/2000/svg">
<path d="M176.762 344.403C186.386 358.154 196.115 371.847 205.604 385.7C209.096 390.799 212.005 396.276 214.467 402.088C193.817 395.548 174.673 387.055 163.304 368.336C153.441 352.109 144.728 335.211 135.581 318.575C130.881 310.039 126.107 301.532 121.765 292.821C114.662 278.588 102.711 269.921 87.9096 264.983C77.1369 261.385 66.0658 258.297 54.8752 256.33C47.3701 255.019 39.4174 256.082 32.7777 256.082C36.1945 250.824 40.0589 249.789 47.8028 252.004C52.6222 253.373 57.8444 253.373 63.0816 252.28C58.1279 251.698 53.1743 251.1 48.2206 250.518C61.4105 247.546 67.1848 239.403 69.96 227.545C72.4219 217.028 76.3013 206.816 79.569 196.474C78.6439 197.275 77.0324 198.63 75.4658 200.057C66.4537 208.244 59.4708 218.849 46.8031 222.636C45.4155 223.044 44.1771 224.122 42.7894 224.268C36.4929 224.909 32.9865 228.288 31.6138 234.203C30.2561 240.117 30.6888 245.346 36.5974 248.843C31.0618 254.99 25.0935 260.656 20.4681 267.241C18.5732 269.936 19.17 274.597 19.3938 278.312C19.6027 281.866 20.8113 285.362 21.423 288.217C18.6477 287.518 15.768 286.79 12.9033 286.061C12.4258 289.63 10.5607 293.738 11.7693 296.637C13.709 301.269 12.5154 304.445 10.8592 308.684C8.24804 315.37 6.65149 322.537 5.53244 329.646C3.72704 341.125 3.48836 352.881 1.11597 364.228C-3.71834 387.39 7.90488 404.55 21.5275 421.025C25.0488 425.279 29.7935 424.128 32.2107 419.044C35.0904 412.97 35.0903 406.72 31.1662 400.996C29.2414 398.199 26.9437 395.591 24.4519 393.275C15.9322 385.351 15.9023 381.723 24.7802 373.158C25.1681 373.799 25.8247 374.382 25.8396 374.993C26.6154 392.663 36.8809 403.676 51.9955 411.833C62.7683 417.646 72.1534 426.255 85.8506 425.25C87.8052 425.104 90.1776 427.333 91.9681 428.892C104.472 439.788 118.9 444.245 135.372 440.807C140.759 439.686 144.877 440.837 149.025 444.012C155.859 449.256 163.02 454.107 169.839 459.366C190.131 475.026 210.99 489.84 234.177 501.261C249.023 508.573 258.215 520.46 263.168 535.668C277.253 578.991 304.737 613.034 340.025 641.673C341.741 643.071 343.621 644.295 345.217 645.81C350.395 650.719 355.02 649.728 358.944 644.441C366.509 634.229 374.253 624.12 381.31 613.573C397.529 589.29 415.344 566.594 438.457 547.875C462.061 528.763 473.252 502.339 479.772 473.846C483.502 457.56 486.606 441.142 490.276 423.443H514C514 422.861 514 422.293 514 421.71H489.485C488.739 415.286 488.396 409.284 487.277 403.414C484.323 387.973 476.116 375.358 463.628 365.743C444.126 350.739 423.969 336.522 404.542 321.416C393.083 312.515 382.593 302.435 371.492 293.097C368.389 290.49 367.658 288.174 369.269 284.357C375.073 270.708 380.505 256.898 386.115 243.176C399.946 209.307 401.856 174.856 395.216 138.905C389.367 107.221 387.025 74.9261 383.175 42.9077C382.37 36.1631 381.877 29.3749 380.982 22.6449C380.609 19.7898 379.848 16.9055 378.804 14.2106C372.94 -0.953766 358.064 -4.81405 346.381 6.69394C323.507 29.2146 305.498 54.7362 297.948 86.3322C294.367 101.307 288.936 115.539 277.835 127.149C267.57 137.9 262.422 139.342 248.292 134.462C234.267 129.611 220.211 124.877 206.246 119.924C204.873 119.443 203.56 118.001 202.844 116.69C199.143 109.916 195.428 103.113 192.101 96.1649C182.552 76.2226 173.166 56.2075 163.737 36.2214C160.215 28.7631 157.321 20.926 153.039 13.9047C148.145 5.87819 141.475 6.2278 136.163 14.094C126.703 28.1076 127.733 43.6215 129.867 59.15C132.03 74.999 134.701 90.7897 136.999 106.639C138.118 114.301 135.805 120.536 129.986 126.348C123.869 132.466 119.109 139.881 113.752 146.742L115.05 148.373C117.497 147.63 120.019 147.062 122.362 146.086C128.762 143.435 134.984 140.391 141.445 137.914C156.246 132.248 171.182 133.85 186.013 137.827C192.757 139.633 193.757 142.139 189.072 147.325C180.418 156.91 171.346 166.174 162.051 175.177C156.067 180.974 149.099 185.782 143.012 191.506C123.943 209.453 121.377 231.275 127.822 255.121C128.285 256.811 127.763 258.719 127.882 260.525C128.36 267.619 126.375 276.374 129.882 281.531C144.668 303.149 161.111 323.703 176.956 344.636C172.42 338.43 167.855 332.268 163.364 326.033C153.247 311.962 142.848 298.079 133.239 283.702C128.598 276.753 127.614 268.668 130.463 259.622C133.597 262.128 135.88 263.949 138.163 265.755C156.739 280.468 176.539 281.604 196.682 269.091C204.008 264.531 205.306 261.924 200.665 255.15C195.219 247.211 189.147 239.447 182.164 232.804C175.643 226.599 166.124 225.258 158.529 229.599C149.547 234.727 142.027 242.316 133.985 248.974C132.537 250.168 131.642 252.018 129.628 254.713C125.972 227.254 131.463 204.748 153.053 187.69C159.231 182.81 165.691 178.148 171.257 172.657C179.418 164.601 186.998 155.963 194.622 147.397C198.487 143.056 196.786 139.036 191.653 138.06C179.836 135.802 167.676 132.481 155.933 133.296C143.982 134.127 132.358 139.4 120.899 142.648C124.092 138.511 127.121 132.728 131.821 128.868C141.624 120.783 141.923 111.052 140.43 99.8504C137.73 79.6896 135.283 59.4413 134.104 39.1494C133.507 28.7922 137.521 18.9157 145.981 9.44712C149.651 17.4007 153.262 23.9705 155.799 30.919C165.438 57.3145 177.15 82.603 194.055 105.444C196.607 108.897 197.562 113.456 199.651 118.438C180.209 116.297 162.662 116.005 145.787 122.604C155.709 123.231 165.602 123.099 175.479 123.274C181.641 123.391 187.804 123.886 193.951 124.381C199.77 124.848 205.858 124.629 211.319 126.29C225.523 130.616 239.489 135.656 253.44 140.697C260.467 143.231 266.973 142.547 272.165 137.623C279.238 130.922 287.146 124.352 291.92 116.195C298.366 105.182 303.126 92.9748 306.901 80.7675C315.182 54.0661 331.669 32.8856 351.902 14.1377C361.585 5.1644 368.956 7.39317 372.238 19.9209C373.88 26.1847 374.327 32.8564 374.402 39.3533C374.805 71.9399 377.58 104.293 383.892 136.312C388.084 157.551 391.71 178.804 389.74 200.596C387.04 230.43 371.821 256.33 363.077 284.342C329.043 271.859 295.277 271.057 261.154 281.881C238.818 288.96 223.33 302.1 219.868 325.771C217.556 341.591 216.183 357.557 214.079 373.406C212.453 385.642 218.063 394.164 229.089 398.097C241.339 402.481 254.111 405.992 266.973 408.061C303.931 414.048 333.609 399.233 350.976 366.719C360.809 348.321 364.554 328.35 365.405 307.752C365.569 303.644 366.061 299.536 366.315 296.521C393.053 316.623 419.448 336.332 445.678 356.26C453.109 361.912 460.793 367.52 467.059 374.294C479.086 387.303 484.89 402.846 483.83 421.317C477.28 420.647 471.625 420.093 465.97 419.481C444.813 417.18 423.581 412.3 402.453 419.015C379.579 426.284 356.87 434.034 334.146 441.74C317.33 447.435 300.291 453.262 282.699 446.314C271.569 441.929 260.87 436.073 250.814 429.635C241.1 423.429 232.402 415.665 223.36 408.483C222.151 407.522 221.286 406.021 220.54 404.623C217.138 398.272 214.557 391.367 210.364 385.569C201.635 373.493 192.131 361.956 182.82 350.273C181.089 348.088 178.792 346.34 176.747 344.388L176.762 344.403ZM353.692 648.141C350.947 646.393 349.842 645.81 348.888 645.053C314.152 617.317 284.281 585.721 270.539 542.952C263.288 520.373 248.994 505.893 228.433 493.948C200.203 477.546 173.823 458.113 145.474 439.205C162.394 432.402 177.538 428.804 193.578 427.566C200.636 427.027 207.469 422.307 214.094 418.884C216.422 417.689 217.794 414.718 220.107 411.95C228.97 419.234 237.132 426.284 245.666 432.883C266.555 449.067 289.667 457.691 316.346 449.504C340.457 442.104 364.793 434.937 388.025 425.337C420.283 412.008 451.9 421.113 486.098 423.895C480.846 447.348 476.549 469.956 470.611 492.142C464.508 514.925 452.288 534.605 433.279 549.522C410.048 567.745 393.232 591.052 377.058 615.001C369.583 626.072 361.675 636.866 353.707 648.126L353.692 648.141ZM26.9586 295.792H25.5262C25.8395 289.339 25.8097 282.842 26.5259 276.433C28.2567 260.715 33.1955 256.315 49.3098 258.967C61.694 260.991 73.8692 264.779 85.761 268.799C99.6373 273.49 110.022 282.492 116.617 295.676C126.644 315.691 136.82 335.648 147.384 355.401C158.634 376.421 174.047 393.29 197.801 401.462C202.605 403.108 207.051 405.715 212.08 408.075C206.663 416.437 198.949 419.831 190.34 419.875C173.271 419.962 157.604 424.682 142.191 431.179C140.043 432.082 137.058 431.922 134.701 431.324C125.196 428.921 115.856 424.405 106.322 424.012C96.0563 423.589 89.3718 419.86 83.0156 412.737C69.0051 397.019 54.5171 381.694 40.1186 366.311C36.6123 362.553 32.539 359.785 25.8843 363.879V320.6C39.1787 313.986 52.4133 307.592 65.4092 300.789C68.5873 299.128 71.8848 296.55 73.5261 293.563C74.8689 291.131 75.1823 286.003 73.6007 284.561C66.4089 278.049 59.0828 271.116 50.4885 266.833C40.1634 261.691 30.4799 268.202 29.0624 279.346C28.3611 284.838 27.63 290.315 26.9287 295.807L26.9586 295.792ZM313.645 276.447C324.582 278.428 335.638 279.885 346.411 282.522C360.242 285.887 361.137 287.751 359.228 301.284C359.123 302.012 359.078 302.741 358.974 303.454C356.273 321.94 354.289 340.703 345.501 357.644C319.912 406.997 281.133 414.441 234.744 395.839C221.748 390.624 216.287 380.485 217.988 367.273C219.913 352.385 222.584 337.571 225.434 322.814C228.373 307.592 238.086 297.526 252.112 290.81C271.494 281.531 292.025 277.802 313.66 276.447H313.645ZM26.4662 421.827C14.0074 404.55 0.89208 389.473 4.15971 367.695C6.27845 353.565 8.06896 339.391 10.2921 325.291C11.262 319.158 12.9779 313.156 14.3655 307.082C15.589 307.082 16.7976 307.082 18.0211 307.096C19.3341 313.681 21.1992 320.221 21.8408 326.864C22.8405 337.221 22.3481 347.753 23.7655 358.037C24.6309 364.316 22.5421 368.467 18.8119 372.954C9.93406 383.632 10.2772 386.356 20.4233 395.926C27.4808 402.583 31.5989 410.071 26.4662 421.812V421.827ZM85.3731 423.269C82.0309 422.832 79.9569 423.05 78.4051 422.278C69.8407 418.025 61.5149 413.319 52.9057 409.139C38.1043 401.972 29.9427 390.449 28.4208 374.469C28.197 372.065 29.0624 369.56 29.4205 367.098C31.7332 368.03 34.7323 368.336 36.2691 369.982C52.4432 387.259 68.3784 404.754 85.3731 423.269ZM42.2822 310.345C38.6863 311.641 32.912 313.71 27.2272 315.749C28.212 311 29.137 307.737 29.5249 304.416C30.5395 295.778 30.7634 287.023 32.3599 278.501C34.1951 268.668 41.3571 265.595 49.832 270.926C55.8003 274.685 61.0524 279.564 66.5134 284.066C71.2283 287.955 70.5568 292.107 66.3193 295.763C63.7082 298.006 60.56 299.667 56.8746 302.085C57.919 297.234 58.9187 293.767 59.3514 290.228C59.9781 285.144 59.7841 280.205 52.8311 279.39C46.0869 278.603 38.4027 283.41 38.6713 289.208C38.9697 295.821 40.8348 302.377 42.2672 310.345H42.2822ZM144.056 240.787C141.848 256.082 146.041 264.662 158.365 268.348C169.72 271.757 177.867 265.391 185.789 246.133C189.758 252.397 193.324 258.034 196.831 263.57C176.926 279.069 148.741 275.573 131.866 255.5C135.85 250.678 139.953 245.725 144.056 240.772V240.787ZM150.815 245.944C150.95 237.611 154.65 234.188 163.259 234.392C172.391 234.625 178.896 240.903 178.762 249.367C178.657 255.412 172.928 261.545 167.347 261.56C159.186 261.574 150.681 253.548 150.815 245.944ZM49.444 225.39C57.0984 219.534 64.7676 213.678 72.4219 207.807C69.9451 216.256 67.8562 225.171 64.6483 233.678C62.2013 240.19 57.2476 244.705 49.0562 245.303C55.1886 235.004 55.1289 232.047 49.4292 225.39H49.444ZM98.2198 426.605C112.215 424.886 124.406 427.814 131.926 434.514C119.198 438.2 108.455 434.922 98.2198 426.605ZM50.026 305.071C48.6085 304.984 47.206 304.897 45.7885 304.809C45.326 298.837 44.4307 292.85 44.6843 286.906C44.744 285.318 48.3101 283.862 50.2647 282.347C51.354 284.007 53.5174 285.785 53.3384 287.3C52.6371 293.272 51.2047 299.143 50.0409 305.057L50.026 305.071ZM42.3269 246.555C38.3878 239.388 39.671 233.605 43.9383 227.604C51.0406 234.873 50.6228 239.68 42.3269 246.555ZM24.1237 285.974C19.6176 272.31 20.0205 269.528 25.7202 266.381C25.2576 272.15 24.7653 278.079 24.1237 285.974Z" fill="#363636"/>
</svg>
