<svg width="300" height="348" viewBox="0 0 300 348" fill="none" xmlns="http://www.w3.org/2000/svg">
<g clip-path="url(#clip0_35_3998)">
<path d="M155.003 52.2883C151.152 50.1777 149.661 60.6356 149.661 60.6356C149.661 60.6356 146.656 57.9648 145.654 59.2999C144.653 60.6356 144.986 61.637 144.986 61.637C144.986 61.637 144.986 73.3234 142.649 77.9976C140.312 82.6718 140.312 85.3432 140.312 85.3432L139.311 93.0226L136.639 103.04L135.972 122.739L132.299 115.393C132.299 115.393 133.097 108.745 133.097 106.008C133.097 103.272 135.631 103.272 134.82 99.0155C134.009 94.7592 132.793 91.2121 130.057 91.4151C130.057 91.4151 127.422 100.536 126.814 102.562C126.205 104.59 123.875 110.264 123.571 110.771C123.267 111.278 123.166 117.764 123.469 120.5C123.774 123.236 124.585 126.986 124.686 127.392C124.787 127.797 128.841 136.411 128.638 138.539C128.435 140.667 127.726 143.708 129.246 147.356C130.766 151.004 130.766 155.767 130.766 156.375C130.766 156.983 130.564 173.603 131.476 182.724C132.388 191.845 133.604 198.534 133.604 198.534C133.604 198.534 134.313 217.992 133.908 226.2C133.503 234.409 131.282 267.285 131.282 273.126C131.282 278.966 128.586 293.566 128.586 293.566C128.586 293.566 133.078 304.797 156.888 304.797C180.697 304.797 192.602 295.363 192.602 295.363C192.602 295.363 184.741 241.679 184.291 232.919C183.842 224.159 181.371 204.168 181.371 204.168L182.045 199.9C182.045 199.9 188.559 192.712 189.457 189.343C190.356 185.974 191.928 183.054 191.928 183.054C191.928 183.054 197.095 174.069 197.768 171.823C198.442 169.577 201.811 153.629 202.036 148.013C202.036 148.013 203.833 140.376 204.956 139.477C206.079 138.579 207.427 134.985 207.427 134.985C207.427 134.985 206.753 128.471 208.55 125.551C210.347 122.631 213.492 119.711 209.673 117.914C205.855 116.117 200.689 119.486 197.544 123.53C194.399 127.573 195.298 128.022 195.298 128.022C195.298 128.022 191.479 134.086 191.03 136.108C190.581 138.13 190.805 139.927 190.805 139.927C190.805 139.927 182.045 151.158 181.82 151.832C181.596 152.505 182.27 144.868 181.82 140.601C181.371 136.333 180.697 128.022 179.125 123.305L178.002 88.7139C178.002 88.7139 179.35 69.8462 179.35 68.9478C179.35 68.0494 181.596 60.1876 178.675 58.3905C175.756 56.5936 173.959 56.5936 171.937 58.84C169.915 61.086 167.445 78.3813 166.995 79.0556C166.546 79.7292 164.3 95.4525 164.3 96.351C164.3 97.2494 161.155 115.893 161.379 117.016C161.604 118.139 160.93 99.9449 160.93 99.9449L161.155 79.7292C161.155 79.7292 166.821 58.764 155.003 52.2883Z" fill="#F4F3F2"/>
<path d="M154.669 52.3049C153.376 51.9531 152.159 52.5297 151.274 53.6552C150.165 55.0656 149.99 57.0571 149.871 58.8373C149.719 61.1199 149.6 63.4043 149.472 65.689C149.349 67.9083 149.178 70.1855 149.293 72.4018C149.297 72.4828 149.407 72.4616 149.42 72.3949C150.143 68.7864 150.289 64.9752 150.618 61.3086C150.854 58.6771 150.818 52.6747 154.481 53.1676C154.949 53.2307 155.154 52.4371 154.669 52.3049Z" fill="#232323"/>
<path d="M159.684 93.5206C159.785 89.5001 159.889 85.4793 159.895 81.4591C160.277 80.4407 160.486 79.2884 160.707 78.2343C160.98 76.9254 161.188 75.601 161.327 74.2683C161.592 71.7246 161.609 69.1568 161.398 66.6169C160.977 61.5748 159.655 56.4216 156.998 52.329C156.978 52.2981 156.93 52.3284 156.944 52.3645C158.741 56.9854 160.165 61.6977 160.525 66.786C160.703 69.3002 160.633 71.8454 160.326 74.354C160.169 75.6385 159.952 76.9156 159.665 78.1739C159.395 79.3577 158.966 80.5056 158.735 81.6951C158.629 82.245 159.303 82.3608 159.609 82.0539C159.316 85.8505 159.106 89.6534 158.893 93.4554C158.638 98.0263 158.223 102.642 158.198 107.217C158.194 107.916 159.211 108.02 159.265 107.304C159.611 102.734 159.57 98.1007 159.684 93.5206Z" fill="#232323"/>
<path d="M160.468 123.421C160.447 122.3 160.426 121.178 160.404 120.056C160.363 117.867 160.317 115.677 160.258 113.488C160.199 111.299 160.144 109.111 160.043 106.92C159.942 104.697 159.972 102.407 159.478 100.199C159.471 100.172 159.42 100.163 159.414 100.194C159.006 102.282 159.11 104.489 159.087 106.618C159.064 108.808 159.08 110.998 159.098 113.189C159.115 115.379 159.144 117.568 159.179 119.759L159.231 122.963C159.25 124.121 159.145 125.339 159.43 126.486C159.532 126.895 160.281 127.028 160.382 126.571C160.608 125.549 160.488 124.467 160.468 123.421Z" fill="#232323"/>
<path d="M158.776 105.019C158.774 104.989 158.726 104.973 158.714 105.007C158.041 106.863 157.716 109.083 157.572 111.044C157.546 111.401 158.091 111.423 158.163 111.093C158.578 109.18 158.893 106.979 158.776 105.019Z" fill="#232323"/>
<path d="M142.305 109.937C142.286 111.595 142.232 113.251 142.306 114.914C142.412 117.317 142.542 119.718 142.682 122.12C142.818 124.469 142.955 126.819 143.091 129.169C143.113 129.549 143.135 129.929 143.157 130.309C143.527 130.342 143.865 130.649 143.7 131.089C143.548 131.493 143.409 131.892 143.272 132.286C143.28 132.422 143.287 132.558 143.295 132.694C143.297 132.718 143.297 132.744 143.299 132.768C143.582 132.536 143.869 132.31 144.161 132.089C144.104 131.087 144.048 130.085 143.991 129.083C143.855 126.68 143.72 124.277 143.584 121.874C143.45 119.523 143.305 117.173 143.14 114.822C143.009 112.965 142.718 111.123 142.498 109.274C143.004 107.427 143.239 105.468 143.598 103.603C144.02 101.412 144.309 99.1935 144.775 97.0115C144.784 96.9666 144.694 96.9588 144.685 97.0044C144.227 99.1483 143.596 101.267 143.09 103.402C142.592 105.504 141.895 107.673 141.654 109.812C141.62 110.112 142.212 110.226 142.305 109.937Z" fill="#232323"/>
<path d="M148.854 68.8385C147.22 77.1817 146.701 85.6746 145.46 94.0764C145.456 94.1017 145.494 94.1043 145.498 94.0796C146.896 85.6701 149.007 77.4234 150.012 68.9332C150.104 68.1542 148.998 68.105 148.854 68.8385Z" fill="#232323"/>
<path d="M141.136 84.8038C139.693 90.2928 138.172 95.7857 137.006 101.342C136.941 101.654 137.528 101.769 137.607 101.465C139.02 95.9717 140.089 90.3777 141.224 84.8217C141.233 84.7762 141.148 84.7595 141.136 84.8038Z" fill="#232323"/>
<path d="M136.823 112.259C136.932 108.755 137.161 105.232 137.042 101.723C137.041 101.683 136.97 101.676 136.965 101.716C136.487 105.186 136.356 108.709 136.106 112.201C135.855 115.701 135.605 119.201 135.579 122.713C135.576 123.069 136.239 123.129 136.273 122.77C136.606 119.276 136.714 115.767 136.823 112.259Z" fill="#232323"/>
<path d="M136.496 132.327C136.498 131.602 136.499 130.878 136.488 130.153C136.467 128.7 136.422 127.25 136.364 125.797C136.362 125.745 136.268 125.735 136.261 125.789C136.069 127.222 135.889 128.654 135.733 130.092C135.655 130.81 135.589 131.528 135.523 132.248C135.464 132.889 135.312 133.566 135.506 134.198C135.604 134.517 136.189 134.592 136.325 134.266C136.579 133.657 136.495 132.973 136.496 132.327Z" fill="#232323"/>
<path d="M145.083 61.5483C144.998 61.108 144.263 61.091 144.266 61.5935C144.272 63.1584 144.425 64.7106 144.4 66.2802C144.376 67.8452 144.272 69.4196 144.083 70.9747C143.702 74.1185 142.977 77.4115 141.897 80.3657C141.861 80.4651 142.003 80.5083 142.043 80.4193C142.709 78.9261 143.363 77.5047 143.825 75.9055C144.268 74.3745 144.617 72.8078 144.874 71.2274C145.378 68.1342 145.673 64.6269 145.083 61.5483Z" fill="#232323"/>
<path d="M149.493 59.8714C148.175 58.7486 146.069 59.0457 145.242 60.7957C145.214 60.8556 145.297 60.8937 145.334 60.8606C146.286 60.0212 147.746 59.8405 148.683 60.7758C149.276 61.3682 150.189 60.4638 149.493 59.8714Z" fill="#232323"/>
<path d="M170.571 62.592C170.573 62.5771 170.549 62.5711 170.545 62.586C169.413 67.3108 168.098 72.0086 167.226 76.7914C167.169 77.1025 167.676 77.2263 167.753 76.9161C168.926 72.1949 169.659 67.3683 170.571 62.592Z" fill="#232323"/>
<path d="M176.86 57.5909C175.444 56.9327 173.667 56.8776 172.372 57.84C171.143 58.7539 170.58 60.3558 171.173 61.7885C171.187 61.8225 171.243 61.812 171.233 61.7727C170.861 60.2635 171.675 58.5911 173.084 57.9261C174.602 57.2087 176.466 57.7558 177.636 58.8727C180.134 61.2566 179.622 65.0449 179.187 68.108C179.131 68.5084 179.755 68.6686 179.865 68.2688C180.863 64.6397 180.864 59.4523 176.86 57.5909Z" fill="#232323"/>
<path d="M177.863 91.8101C177.843 93.1053 177.852 94.4047 177.865 95.7062C178.114 95.9476 178.681 95.8651 178.673 95.4246C178.506 86.2696 179.177 77.1811 179.899 68.0637C179.901 68.044 179.865 68.0401 179.861 68.0595C178.337 75.7343 177.792 83.6238 177.739 91.4603C177.816 91.5476 177.865 91.6639 177.863 91.8101Z" fill="#232323"/>
<path d="M179.442 122.296C179.202 121.207 178.962 120.117 178.72 119.028C178.482 117.958 178.197 116.895 177.918 115.83C177.919 116.529 177.914 117.228 177.901 117.926C177.961 118.322 178.025 118.719 178.096 119.114C178.283 120.156 178.473 121.199 178.662 122.242C178.837 123.213 178.855 124.364 179.353 125.258C179.482 125.49 179.908 125.426 179.941 125.18C180.064 124.255 179.644 123.212 179.442 122.296Z" fill="#232323"/>
<path d="M181.569 149.26C182.67 145.141 182.568 140.728 182.226 136.493C182.058 134.417 181.787 132.341 181.348 130.27C180.886 128.095 180.095 125.989 179.403 123.839C179.396 123.819 179.347 123.819 179.353 123.841C179.921 125.933 180.162 128.092 180.485 130.198C180.812 132.329 181.069 134.464 181.196 136.596C181.32 138.679 181.337 140.762 181.241 142.836C181.142 144.951 180.861 147.048 180.755 149.163C180.738 149.495 181.481 149.588 181.569 149.26Z" fill="#232323"/>
<path d="M165.545 91.6851C166.251 86.8096 166.831 81.9032 167.574 77.0373C167.581 76.9924 167.507 76.9742 167.499 77.0192C166.653 81.8511 165.639 86.6688 164.756 91.4981C163.872 96.3292 162.873 101.153 162.155 106.01C162.048 106.729 163.242 107.026 163.372 106.299C164.244 101.456 164.839 96.5552 165.545 91.6851Z" fill="#232323"/>
<path d="M158.34 130.375C158.472 130.222 158.948 129.749 159.032 129.45C158.92 129.142 159.057 128.75 159.366 128.646C159.869 126.287 160.366 123.927 160.861 121.566C161.448 118.765 162.018 115.963 162.565 113.154C162.844 111.719 163.124 110.281 163.334 108.834C163.543 107.385 163.653 105.912 163.947 104.478C163.954 104.441 163.892 104.426 163.884 104.463C163.565 105.888 163.063 107.271 162.661 108.675C162.26 110.078 161.927 111.503 161.595 112.924C160.93 115.768 160.289 118.616 159.665 121.47C159.04 124.323 158.418 127.177 157.808 130.033C157.723 130.428 157.639 130.823 157.555 131.218C157.825 130.946 158.09 130.667 158.34 130.375Z" fill="#232323"/>
<path d="M129.483 93.3188C129.496 93.2247 129.348 93.1577 129.303 93.2521C128.099 95.7818 127.428 98.6461 126.581 101.311C126.144 102.684 125.721 104.062 125.296 105.439C124.863 106.843 124.249 108.303 124.053 109.761C124.012 110.06 124.479 110.276 124.628 109.973C125.215 108.778 125.496 107.403 125.878 106.13C126.31 104.694 126.747 103.259 127.167 101.819C127.974 99.0405 129.06 96.186 129.483 93.3188Z" fill="#232323"/>
<path d="M124.716 125.26C124.722 123.048 124.513 120.851 124.315 118.649C124.131 116.602 123.999 114.368 123.453 112.382C123.434 112.314 123.302 112.305 123.292 112.384C123.03 114.408 123.223 116.625 123.332 118.66C123.452 120.871 123.561 123.078 123.883 125.269C123.952 125.74 124.715 125.775 124.716 125.26Z" fill="#232323"/>
<path d="M136.074 126.145C135.909 124.223 135.149 122.25 134.591 120.41C134.019 118.521 133.372 116.68 132.667 114.843C132.769 114.2 132.802 113.536 132.872 112.903L133.209 109.879C133.367 108.467 133.588 106.983 133.585 105.533C137.265 101.463 135.602 94.7363 131.158 91.8884C131.044 91.8155 130.893 91.9834 131.012 92.0718C133.054 93.5885 134.443 95.9035 134.673 98.455C134.919 101.191 133.859 103.562 132.255 105.705C132.007 106.037 132.469 106.336 132.795 106.249C132.539 107.495 132.406 108.785 132.235 110.013L131.84 112.841C131.705 113.81 131.471 114.821 131.56 115.802C131.602 116.261 132.262 116.315 132.41 115.898C132.482 115.697 132.536 115.49 132.583 115.281C132.846 116.967 133.149 118.637 133.53 120.307C133.977 122.262 134.3 124.439 135.135 126.268C135.322 126.676 136.122 126.708 136.074 126.145Z" fill="#232323"/>
<path d="M131.588 168.496C131.61 166.684 131.629 164.873 131.634 163.062C131.644 159.562 131.803 156.001 131.361 152.521C131.579 152.734 132.028 152.594 132.021 152.263C132 151.22 131.428 150.094 131.095 149.11C130.714 147.986 130.277 146.879 129.862 145.767C129.842 145.715 129.736 145.717 129.749 145.781C129.963 146.889 130.155 148.004 130.399 149.106C130.624 150.127 130.748 151.351 131.227 152.295C130.633 155.717 130.662 159.249 130.546 162.711C130.485 164.523 130.435 166.334 130.391 168.146C130.348 169.914 130.083 171.834 130.392 173.579C130.475 174.047 131.26 174.246 131.382 173.69C131.746 172.029 131.567 170.191 131.588 168.496Z" fill="#232323"/>
<path d="M198.224 167.653C197.053 170.149 195.942 172.67 194.845 175.199C193.774 177.668 192.58 180.14 191.877 182.747C191.893 182.608 191.91 182.469 191.922 182.33C191.955 181.96 191.302 181.828 191.2 182.188C190.319 185.308 189.501 188.302 187.892 191.145C187.14 192.474 186.286 193.76 185.35 194.968C184.857 195.605 184.337 196.221 183.79 196.813C183.251 197.396 182.843 197.977 182.384 198.611C182.373 198.626 182.396 198.647 182.412 198.638C183.133 198.22 183.703 197.876 184.307 197.269C184.869 196.704 185.408 196.116 185.922 195.508C186.986 194.249 187.923 192.9 188.731 191.465C190.196 188.864 191.48 185.897 191.861 182.89C191.869 182.892 191.876 182.891 191.881 182.884C193.392 180.635 194.469 178.093 195.622 175.646C196.825 173.094 198.016 170.537 199.144 167.95C199.364 167.445 198.454 167.163 198.224 167.653Z" fill="#232323"/>
<path d="M206.671 135.11C204.995 137.488 203.945 140.455 203.083 143.162C202.193 145.962 201.731 148.796 201.525 151.692C201.521 151.748 201.612 151.751 201.621 151.699C202.129 148.848 202.941 146.009 203.912 143.262C204.379 141.94 204.915 140.643 205.504 139.363C206.112 138.044 206.882 136.783 207.469 135.46C207.667 135.013 206.937 134.731 206.671 135.11Z" fill="#232323"/>
<path d="M194.052 131.337C192.758 132.708 191.881 134.333 191.264 136.061C190.804 137.348 190.355 138.87 190.367 140.298C188.265 141.879 186.518 143.956 185.04 146.053C184.235 147.194 183.515 148.391 182.865 149.614C182.221 150.826 181.46 152.163 181.146 153.491C181.043 153.927 181.769 154.129 181.975 153.742C182.623 152.525 183.043 151.197 183.672 149.965C184.282 148.773 184.966 147.618 185.708 146.494C187.1 144.385 188.757 142.5 190.374 140.555C190.39 140.868 190.427 141.176 190.495 141.474C190.569 141.795 191.177 141.746 191.238 141.438C191.401 140.613 191.37 139.789 191.456 138.954C191.548 138.069 191.719 137.189 191.956 136.326C192.432 134.589 193.237 132.959 194.092 131.361C194.103 131.338 194.069 131.319 194.052 131.337Z" fill="#232323"/>
<path d="M211.74 118.573C210.622 115.92 207.296 116.2 205.135 117.179C202.737 118.264 200.575 119.909 198.789 121.833C197.08 123.676 195.399 126.008 194.813 128.491C194.796 128.56 194.898 128.557 194.924 128.514C196.046 126.651 197.04 124.776 198.477 123.122C199.929 121.45 201.655 120.006 203.566 118.885C205.484 117.759 208.412 116.338 210.364 118.163C211.78 119.485 211.293 121.12 210.437 122.595C210.259 122.464 209.976 122.455 209.79 122.675C207.21 125.735 206.706 130.171 207.774 133.906C207.792 133.97 207.897 133.956 207.888 133.887C207.631 132.068 207.755 130.111 208.19 128.327C208.507 127.029 209.002 125.867 209.607 124.734C211.218 123.171 212.689 120.824 211.74 118.573Z" fill="#232323"/>
<path d="M181.775 151.629C181.741 150.398 181.706 149.167 181.661 147.936C181.494 143.443 181.304 138.958 180.947 134.475C180.944 134.437 180.885 134.436 180.883 134.475C180.722 138.906 180.73 143.33 180.749 147.764C180.756 149.457 180.786 151.15 180.814 152.843C180.691 152.979 180.638 153.172 180.735 153.351C180.766 153.408 180.795 153.466 180.824 153.524C180.829 153.787 180.833 154.052 180.837 154.315C180.838 154.37 180.838 154.425 180.838 154.479C180.935 154.367 181.034 154.257 181.134 154.147C182.221 156.468 182.7 159.004 182.671 161.577C182.669 161.71 182.884 161.744 182.902 161.605C183.248 158.818 182.846 156.073 181.91 153.445C182.112 153.26 182.074 152.948 181.807 152.805C181.806 152.746 181.804 152.687 181.802 152.628C182.266 152.837 182.754 153.005 183.176 153.315C183.851 153.811 184.312 154.457 184.827 155.103C184.855 155.138 184.927 155.118 184.918 155.069C184.677 153.756 183.209 151.932 181.775 151.629Z" fill="#232323"/>
<path d="M202.905 146.051C202.94 145.701 202.383 145.543 202.302 145.908C200.734 153.011 200.075 160.246 199.146 167.444C199.14 167.489 199.213 167.508 199.221 167.463C200.572 160.344 202.186 153.276 202.905 146.051Z" fill="#232323"/>
<path d="M133.115 191.984C133.356 190.179 133.06 188.234 132.973 186.42C132.887 184.604 132.8 182.788 132.713 180.972C132.535 177.218 132.276 173.468 132.083 169.715C132.081 169.67 132.006 169.669 132.006 169.716C132.018 173.41 131.965 177.104 131.99 180.798C132.003 182.615 132.016 184.431 132.029 186.248C132.041 188.08 131.839 190.075 132.176 191.879C132.255 192.303 133.042 192.527 133.115 191.984Z" fill="#232323"/>
<path d="M182.173 212.323C181.874 210.434 181.425 208.593 181.256 206.679C181.088 204.78 181.074 202.867 181.217 200.966C181.509 197.088 182.497 193.301 183.904 189.685C183.949 189.572 183.743 189.503 183.689 189.606C181.861 193.104 180.792 196.952 180.371 200.871C179.969 204.605 179.927 208.852 181.098 212.464C181.263 212.976 182.269 212.931 182.173 212.323Z" fill="#232323"/>
<path d="M134.04 206.133C133.629 204.127 133.17 202.189 133.25 200.123C133.29 199.101 133.409 198.077 133.627 197.077C133.833 196.13 134.242 195.206 134.316 194.24C134.328 194.095 134.104 194.043 134.016 194.131C132.68 195.464 132.251 198.028 132.106 199.831C131.934 201.968 132.08 204.314 133.039 206.264C133.239 206.669 134.163 206.735 134.04 206.133Z" fill="#232323"/>
<path d="M130.669 281.116C131.204 277.171 131.665 273.216 132.049 269.254C132.82 261.317 134.403 221.294 134.468 213.321C134.506 208.731 134.391 204.164 134.054 199.586C134.049 199.52 133.941 199.512 133.939 199.583C133.45 215.67 131.728 263.749 129.562 279.718C128.964 284.123 128.124 288.5 127.602 292.913C127.535 293.48 128.566 293.646 128.7 293.083C129.629 289.158 130.129 285.11 130.669 281.116Z" fill="#232323"/>
<path d="M181.036 211.893C181.144 214.535 181.441 217.181 181.65 219.817L182.27 227.609C182.686 232.847 188.314 276.811 188.806 282.044C189.087 285.037 189.398 288.026 189.778 291.01C189.785 291.068 189.881 291.066 189.88 291.004C189.631 280.504 183.493 231.293 182.747 220.819C182.534 217.83 182.42 214.815 182.092 211.836C182.025 211.225 181.009 211.251 181.036 211.893Z" fill="#232323"/>
<path d="M155.388 142.854C155.406 142.827 155.419 142.794 155.426 142.757C155.911 140.048 155.956 137.231 156.161 134.489C156.163 134.459 156.115 134.453 156.11 134.483C155.662 137.196 155.042 139.943 154.876 142.689C154.865 142.855 154.994 142.952 155.129 142.966C155.21 144.436 155.365 145.915 155.619 147.354C155.658 147.576 156.017 147.538 156.001 147.307C155.895 145.825 155.677 144.324 155.388 142.854Z" fill="#232323"/>
<path d="M144.774 135.537C144.777 135.485 144.692 135.474 144.684 135.526C144.168 138.948 143.608 142.356 143.338 145.808C143.316 146.086 143.771 146.144 143.812 145.866C144.312 142.438 144.519 138.989 144.774 135.537Z" fill="#232323"/>
<path d="M135.583 146.882C134.895 143.777 134.645 140.297 135.564 137.216C135.579 137.164 135.495 137.134 135.48 137.184C134.46 140.447 134.053 143.617 135.035 146.949C135.123 147.246 135.656 147.216 135.583 146.882Z" fill="#232323"/>
<path d="M163.904 101.942C164.466 95.4109 165.556 88.9107 167.64 82.6781C167.649 82.6486 167.603 82.6323 167.592 82.6599C165.014 88.7467 163.398 95.2284 163.315 101.869C163.314 101.939 163.338 101.997 163.375 102.044C162.591 105.42 161.688 108.722 161.147 112.155C160.617 115.519 159.798 118.977 159.708 122.386C159.692 122.991 160.735 123.35 160.922 122.686C161.849 119.404 162.116 115.887 162.612 112.517C163.122 109.059 163.257 105.62 163.513 102.143C163.677 102.207 163.886 102.153 163.904 101.942Z" fill="#232323"/>
<path d="M179.029 113.244C178.98 110.466 178.88 107.689 178.691 104.919C178.822 103.476 178.85 102.017 178.863 100.606C178.886 98.0757 178.782 95.566 178.305 93.0782C178.3 93.0532 178.256 93.0506 178.254 93.0782C178.12 94.6095 178.045 96.1432 177.97 97.6777C177.94 97.4583 177.909 97.2393 177.878 97.0199C177.907 99.8877 177.91 102.759 177.626 105.604C177.688 107.206 177.755 108.809 177.809 110.412C177.865 111.356 177.918 112.3 177.962 113.244C178.216 118.769 178.258 124.296 178.29 129.825C178.291 129.891 178.398 129.909 178.406 129.839C178.977 124.331 179.128 118.779 179.029 113.244Z" fill="#232323"/>
<path d="M146.826 58.7146C145.509 58.854 144.152 59.9846 144.103 61.3697C144.096 61.5635 144.232 61.7144 144.399 61.782C144.21 63.3415 144.171 64.9246 144.012 66.4868C143.829 68.2607 143.642 70.0322 143.352 71.793C143.053 73.6068 142.656 75.4072 142.147 77.1742C141.654 78.888 140.913 80.5324 140.453 82.2494C140.405 82.4283 140.438 82.5727 140.518 82.6844C140.141 83.6795 139.876 84.7151 139.62 85.7648C139.188 87.539 138.795 89.3206 138.406 91.1043C138.017 92.8862 137.627 94.6682 137.238 96.4501C136.859 98.1886 136.371 99.9419 136.194 101.715C135.926 102.597 135.877 103.627 135.756 104.449C135.546 105.878 135.417 107.322 135.28 108.76C134.999 111.697 134.861 114.656 134.73 117.603C134.69 118.526 134.66 119.448 134.632 120.371C134.521 119.932 134.397 119.496 134.253 119.064C133.829 117.794 133.312 116.009 132.302 115.04C132.479 114.014 132.609 112.981 132.72 111.978C132.945 109.945 133.122 107.815 132.865 105.77C134.768 103.687 135.134 100.198 134.769 97.5289C134.449 95.1971 133.308 91.3326 130.478 91.0549C130.14 91.0219 129.959 91.2293 129.95 91.4553C129.943 91.4032 129.934 91.3508 129.924 91.299C129.9 91.179 129.737 91.1469 129.658 91.2341C129.102 91.8569 128.915 92.766 128.668 93.5489C128.42 94.3398 128.172 95.1311 127.934 95.925C127.45 97.5488 127.009 99.1861 126.524 100.81C126.042 102.424 125.536 104.033 124.956 105.615C124.362 107.232 123.454 108.798 122.969 110.44C122.945 110.525 122.942 110.607 122.955 110.685C122.875 110.872 122.798 111.06 122.731 111.247C122.477 111.957 122.43 112.814 122.371 113.558C122.26 114.948 122.294 116.348 122.395 117.738C122.5 119.18 122.653 120.623 122.884 122.051C123.116 123.489 123.315 125.079 123.876 126.429C123.882 126.444 123.89 126.455 123.897 126.469C124.526 128.743 125.384 130.881 126.327 133.065C126.825 134.216 127.302 135.383 127.634 136.595C127.97 137.825 128.023 139.026 128.157 140.283C128.237 141.041 129.507 141.029 129.612 140.284C129.956 137.853 128.81 135.168 127.857 132.992C126.904 130.815 125.848 128.743 124.594 126.749C124.867 126.685 125.096 126.467 125.052 126.141C124.855 124.718 124.375 123.324 124.153 121.896C123.93 120.462 123.785 119.024 123.762 117.572C123.739 116.181 123.795 114.792 123.84 113.402C123.86 112.796 123.923 112.178 123.887 111.574C123.879 111.441 123.866 111.309 123.852 111.176C123.921 111.138 123.986 111.082 124.041 111.004C124.969 109.661 125.475 107.922 126.009 106.389C126.603 104.687 127.13 102.963 127.621 101.229C128.079 99.6103 128.526 97.9873 128.949 96.3593C129.171 95.5014 129.38 94.6387 129.586 93.7766C129.752 93.0797 130.014 92.318 129.962 91.5919C130.005 91.753 130.138 91.9012 130.367 91.9533C132.853 92.5189 133.713 96.2105 133.926 98.3728C134.047 99.6014 133.987 100.864 133.77 102.079C133.567 103.217 133.144 104.27 132.806 105.362C132.802 105.334 132.798 105.306 132.794 105.278C132.781 105.2 132.651 105.197 132.641 105.278C132.355 107.474 132.324 109.693 132.007 111.89C131.855 112.945 131.636 113.979 131.402 115.007C131.351 115.083 131.325 115.174 131.34 115.277C131.1 116.317 130.847 117.354 130.629 118.406C130.541 118.826 131.284 118.997 131.422 118.602C131.641 117.974 131.82 117.323 131.975 116.661C132.065 116.809 132.153 116.957 132.233 117.107C132.609 117.812 132.963 118.528 133.273 119.265C133.574 119.984 133.852 120.717 134.093 121.459C134.244 121.923 134.341 122.408 134.563 122.833C134.534 123.981 134.504 125.129 134.463 126.277C134.36 129.194 134.192 132.214 134.52 135.119C134.596 135.785 135.783 135.813 135.835 135.12C136.05 132.253 135.854 129.318 135.828 126.443C135.802 123.491 135.94 120.535 136.082 117.586C136.221 114.695 136.45 111.813 136.634 108.925C136.727 107.48 136.852 106.036 136.919 104.59C136.947 103.973 137.043 103.256 137.061 102.551C137.289 102.529 137.495 102.409 137.583 102.155C138.158 100.492 138.446 98.7256 138.815 97.0083C139.211 95.1659 139.607 93.3241 140.004 91.4821C140.387 89.7001 140.765 87.9191 141.11 86.1291C141.322 85.0313 141.519 83.9412 141.584 82.8412C141.691 82.7826 141.781 82.7004 141.84 82.593C142.673 81.0557 143.125 79.2092 143.586 77.53C144.09 75.6998 144.491 73.8432 144.78 71.9666C145.283 68.707 145.572 65.0285 144.813 61.7531C144.869 61.7135 144.916 61.6569 144.945 61.5778C145.305 60.6162 145.838 59.6901 146.978 59.5746C147.931 59.4779 148.65 60.073 149.465 60.4373C149.484 60.4454 149.518 60.4341 149.518 60.4102C149.523 59.1543 147.857 58.6051 146.826 58.7146Z" fill="#232323"/>
<path d="M134.838 207.168C134.557 205.751 134.117 204.402 133.948 202.957C133.771 201.442 133.731 199.914 133.864 198.394C134.126 195.383 134.971 192.592 136.149 189.818C136.182 189.74 136.064 189.688 136.015 189.748C135.234 190.684 134.574 191.726 134.028 192.832C133.889 192.126 133.717 191.425 133.611 190.766C133.352 189.167 133.128 187.563 132.938 185.954C132.57 182.849 132.328 179.729 132.125 176.609C131.711 170.262 131.745 163.909 131.488 157.559C131.43 156.124 131.352 154.693 131.262 153.26C131.682 153.218 132.069 152.932 131.934 152.478C131.573 151.271 131.228 150.059 130.907 148.842C130.798 147.947 130.627 147.045 130.613 146.15C130.61 145.985 130.328 145.95 130.331 146.115C130.333 146.254 130.33 146.393 130.328 146.532C129.637 143.618 129.103 140.668 128.828 137.673C128.811 137.49 128.485 137.485 128.47 137.673C128.105 142.332 128.51 147.036 129.964 151.486C129.889 152.969 129.84 154.457 129.828 155.942C129.8 159.237 129.851 162.533 129.906 165.828C130.012 172.164 130.181 178.504 130.884 184.806C131.083 186.589 131.318 188.367 131.599 190.138C131.744 191.054 131.906 191.965 132.084 192.874C132.252 193.731 132.356 194.639 132.781 195.411C132.822 195.486 132.876 195.549 132.939 195.603C132.679 196.462 132.478 197.335 132.341 198.208C131.905 200.972 131.871 204.262 132.858 206.967C132.852 207.125 132.894 207.292 133.006 207.455L133.229 207.775C133.692 208.439 135.005 208.015 134.838 207.168Z" fill="#232323"/>
<path d="M179.218 89.0333C179.27 85.2536 179.331 81.4743 179.425 77.6958C179.473 75.8076 179.528 73.9203 179.57 72.0321C179.591 71.0569 179.612 70.0822 179.634 69.1073C179.649 68.434 179.733 67.7052 179.659 67.0185C179.996 65.7718 180.317 64.5129 180.4 63.2257C180.561 60.7758 179.791 57.9293 177.529 56.6258C175.949 55.7146 172.724 55.6309 171.902 57.659C171.888 57.693 171.879 57.7257 171.873 57.7582C170.384 59.3627 169.899 61.6662 169.463 63.774C168.844 66.769 168.268 69.7741 167.665 72.7727C167.057 75.7921 166.418 78.8073 165.844 81.8336C165.552 83.3741 165.253 84.9158 164.996 86.4625C164.884 87.1389 164.808 87.831 164.732 88.5228C162.948 95.015 161.993 101.728 161.4 108.439C161.4 107.966 161.399 107.494 161.399 107.022C161.398 103.78 161.409 100.537 161.387 97.2958C161.365 94.0484 161.342 90.8027 161.267 87.5568C161.232 86.0309 161.168 84.5038 161.079 82.9799C161.045 82.4033 161.002 81.8255 160.955 81.248C161.006 81.0516 161.055 80.8545 161.106 80.6637C161.299 79.9427 161.47 79.216 161.621 78.4855C161.944 76.9188 162.172 75.3325 162.303 73.7384C162.553 70.6976 162.465 67.6204 162.038 64.5998C161.61 61.5822 160.813 58.6158 159.68 55.786C159.177 54.5307 158.504 53.1 157.254 52.4338C156.307 51.9284 155.196 51.8399 154.253 52.3862C154.189 52.4234 154.248 52.5097 154.309 52.5005C157.351 52.0394 158.451 56.3817 159.094 58.5506C159.866 61.1524 160.383 63.8425 160.63 66.5446C160.878 69.2413 160.838 71.9594 160.525 74.649C160.371 75.9734 160.151 77.29 159.864 78.5915C159.595 79.8105 158.906 81.2442 159.008 82.4855C159.042 82.8918 159.474 83.0752 159.849 83.0183C159.75 84.4624 159.683 85.9121 159.643 87.358C159.551 90.6539 159.513 93.9487 159.475 97.2455C159.438 100.546 159.435 103.846 159.418 107.146C159.409 108.735 159.399 110.324 159.394 111.914C159.389 113.426 159.157 115.281 159.645 116.72C159.847 117.313 160.934 117.318 161.141 116.727C161.409 115.967 161.361 115.156 161.374 114.358C161.389 113.503 161.401 112.648 161.401 111.792C161.401 111.422 161.401 111.052 161.4 110.682C161.858 106.551 162.585 102.429 163.411 98.3722C164.449 93.2744 165.822 88.2861 167.128 83.2541C167.19 83.0121 166.912 82.8674 166.687 82.9028C166.72 82.7665 166.753 82.6311 166.786 82.4947C167.492 79.6132 168.125 76.7122 168.788 73.8202C169.437 70.9869 170.093 68.1547 170.749 65.3229C171.352 62.7232 171.962 60.2989 173.464 58.0511C173.548 57.9255 173.578 57.7954 173.571 57.6716C174.123 57.3524 174.688 57.156 175.437 57.2602C176.553 57.4155 177.469 58.163 178.058 59.0992C179.336 61.1321 179.05 63.6737 178.612 65.9364C178.497 65.9858 178.402 66.0811 178.349 66.2347C178.125 66.8824 178.121 67.5728 178.127 68.2586C177.664 70.3969 177.165 72.5277 176.707 74.6669C176.404 76.0803 176.091 77.4925 175.824 78.9136C175.56 80.3273 175.403 81.7773 175.078 83.177C175.062 83.2434 175.176 83.2565 175.193 83.191C175.633 81.4219 176.302 79.7025 176.784 77.942C177.232 76.3053 177.666 74.6642 178.092 73.0216L178.093 73.0192C178.081 74.5832 178.075 76.1475 178.062 77.7122C178.031 81.4936 177.97 85.2748 177.901 89.0556C177.763 96.6373 177.849 104.246 178.136 111.824C178.138 111.883 178.247 111.884 178.251 111.825C178.787 104.246 179.112 96.6296 179.218 89.0333Z" fill="#232323"/>
<path d="M209.809 124.705C211.37 122.735 212.815 119.698 210.584 117.628C206.167 113.53 199.602 119.803 197.03 123.248C195.851 124.826 194.87 126.552 194.177 128.386C192.966 130.047 191.998 131.92 191.204 133.784C190.295 135.917 189.593 138.186 189.451 140.51C187.822 141.869 186.443 143.62 185.183 145.27C184.204 146.552 183.311 147.898 182.49 149.287C182.563 148.642 182.598 147.988 182.656 147.372C182.771 146.157 182.848 144.938 182.89 143.719C182.977 141.165 182.908 138.604 182.685 136.06C182.463 133.517 182.06 130.981 181.436 128.506C181.14 127.332 180.826 126.162 180.405 125.025C179.941 123.771 179.344 122.59 178.846 121.352C178.82 121.287 178.69 121.311 178.712 121.385C179.394 123.723 179.749 126.258 180.184 128.659C180.628 131.116 180.989 133.584 181.223 136.07C181.457 138.554 181.539 141.05 181.464 143.544C181.428 144.764 181.355 145.983 181.246 147.199C181.134 148.447 180.821 149.748 180.876 150.997C180.887 151.236 181.067 151.39 181.286 151.454C181.153 151.71 181.02 151.966 180.892 152.224C180.497 153.013 181.901 153.519 182.257 152.745C183.375 150.315 184.703 147.997 186.222 145.795C187.218 144.351 188.388 143.036 189.486 141.672C189.527 141.691 189.579 141.685 189.599 141.632C189.622 141.57 189.645 141.507 189.668 141.444C190.138 140.854 190.591 140.253 191.008 139.627C191.077 139.524 190.948 139.428 190.852 139.487C190.638 139.62 190.43 139.763 190.224 139.91C190.882 138.052 191.509 136.184 192.322 134.383C193.423 131.944 194.885 129.77 196.349 127.542C196.627 127.119 196.294 126.728 195.908 126.687C197.591 123.912 199.753 121.458 202.474 119.567C204.4 118.228 207.601 116.489 209.651 118.582C211.746 120.722 208.888 124.032 207.886 125.991C206.686 128.338 206.378 131.455 207.212 133.999C207.102 134.574 206.88 135.141 206.627 135.683C206.062 136.893 205.363 138.048 204.76 139.241C204.365 140.023 203.973 140.807 203.582 141.592C203.421 141.598 203.26 141.672 203.162 141.831C202.232 143.35 201.521 144.999 200.794 146.622C200.066 148.245 199.619 149.969 198.968 151.621C198.95 151.666 199.018 151.687 199.04 151.649C199.82 150.268 200.65 148.924 201.439 147.561C201.038 151.285 200.64 155.02 200.023 158.713C199.68 160.773 199.277 162.826 198.799 164.859C198.559 165.88 198.301 166.896 198.024 167.907C197.812 168.68 197.358 169.616 197.339 170.456C196.587 172.089 195.822 173.718 195.023 175.321C194.432 176.506 193.814 177.675 193.135 178.814C192.687 179.566 192.164 180.286 191.679 181.024C191.709 179.69 191.663 178.357 191.644 176.994C191.643 176.949 191.569 176.938 191.567 176.984C191.463 179.241 190.798 181.568 190.221 183.742C189.606 186.054 188.84 188.321 187.88 190.513C186.779 193.025 185.388 195.271 183.8 197.392C184.398 196.233 184.96 195.059 185.552 193.895C185.582 193.837 185.496 193.799 185.463 193.848C184.484 195.237 183.467 196.587 182.528 198.008C181.913 198.937 181.219 199.863 180.604 200.823C180.518 200.823 180.432 200.868 180.428 200.961C180.426 201.012 180.424 201.063 180.422 201.114C180.4 201.149 180.377 201.184 180.356 201.219C180.354 201.328 180.353 201.438 180.351 201.547L180.351 201.547C180.342 202.029 180.335 202.511 180.33 202.992H180.33C180.33 203.014 180.33 203.036 180.33 203.058L180.336 203.057C180.213 206.059 180.107 209.069 180.127 212.069C180.131 212.623 181.071 212.745 181.076 212.186C181.083 211.201 181.077 210.215 181.062 209.23C181.146 209.188 181.21 209.109 181.22 208.985C181.265 208.409 181.303 207.829 181.333 207.247C181.296 208.529 181.276 209.81 181.282 211.091C181.3 214.876 181.496 218.661 181.719 222.438C182.169 230.042 188.125 276.354 189.11 283.907C189.665 288.167 190.206 292.495 191.258 296.665C191.469 297.502 192.834 297.4 192.747 296.483C192.393 292.727 191.726 288.993 191.198 285.257C190.661 281.457 190.19 277.647 189.785 273.831C188.987 266.307 183.364 220.053 182.912 212.503C182.698 208.922 182.44 205.345 182.241 201.762C185.26 198.818 187.606 195.01 189.273 191.205C190.211 189.063 190.957 186.788 191.366 184.483C191.44 184.063 191.497 183.646 191.542 183.23C191.713 183.219 191.877 183.16 191.995 183.04C192.946 182.066 193.639 180.785 194.334 179.621C195.067 178.392 195.756 177.13 196.358 175.831C197.063 174.31 197.614 172.797 198.018 171.232C198.108 171.207 198.192 171.16 198.258 171.091C198.87 170.45 198.982 169.332 199.211 168.488C199.491 167.452 199.753 166.41 199.995 165.364C200.493 163.213 200.91 161.045 201.228 158.86C201.801 154.938 202.065 151.026 201.807 147.079C201.948 147.072 202.082 147.022 202.163 146.919C203.072 145.753 203.636 144.264 204.301 142.948C205.04 141.484 205.793 140.027 206.503 138.548C207.163 137.175 207.816 135.707 207.796 134.259C207.854 134.205 207.884 134.13 207.858 134.036C207.816 133.89 207.776 133.744 207.737 133.599C207.702 133.39 207.65 133.183 207.58 132.976C207.294 131.739 207.176 130.524 207.509 129.226C207.959 127.476 208.695 126.112 209.809 124.705ZM181.534 202.424C181.483 203.419 181.435 204.414 181.396 205.41C181.413 204.46 181.404 203.512 181.369 202.569C181.424 202.52 181.479 202.473 181.534 202.424Z" fill="#232323"/>
<path d="M132.759 269.127C133.551 260.872 135.178 220.488 135.056 212.192C134.988 207.564 134.81 202.852 133.994 198.287C133.984 198.23 133.884 198.225 133.879 198.287C133.525 202.414 133.507 206.597 133.433 210.739C133.359 214.857 133.27 218.977 133.077 223.092C132.688 231.39 130.825 271.718 129.662 279.944C129.009 284.56 128.129 289.136 127.428 293.743C127.263 294.828 129.026 295.006 129.26 293.967C131.09 285.837 131.965 277.413 132.759 269.127Z" fill="#232323"/>
<path d="M139.5 91.3151C137.502 92.8383 135.546 94.4187 133.634 96.0503C133.796 96.481 133.873 96.9398 133.971 97.392C135.704 95.8869 137.472 94.4214 139.279 93.0065C139.345 92.4412 139.42 91.8771 139.5 91.3151Z" fill="#232323"/>
<path d="M168.055 75.8103C168.141 75.3768 168.234 74.9446 168.333 74.5135C167.333 74.944 166.34 75.3816 165.358 75.8269C163.39 76.7185 161.446 77.6607 159.526 78.6496C159.543 78.7395 159.553 78.8344 159.547 78.9392C159.528 79.2687 159.5 79.6021 159.468 79.9358C161.267 78.9901 163.089 78.084 164.932 77.2228C165.966 76.7396 167.007 76.2687 168.055 75.8103Z" fill="#232323"/>
<path d="M184.547 132.102C188.186 130.647 191.875 129.261 195.603 127.976C195.788 127.456 196.015 126.955 196.274 126.468C192.224 127.812 188.213 129.27 184.246 130.84C183.063 131.308 181.884 131.788 180.709 132.277C180.705 132.334 180.705 132.392 180.702 132.45C180.732 132.554 180.745 132.666 180.737 132.787C180.715 133.088 180.697 133.39 180.68 133.691C181.964 133.15 183.253 132.619 184.547 132.102Z" fill="#232323"/>
<path d="M126.858 67.4635C126.861 67.4236 126.862 67.3838 126.864 67.3436C126.863 67.0408 126.805 66.7321 126.69 66.4505C126.742 66.4038 126.796 66.3579 126.848 66.3115C126.847 66.3044 126.847 66.2969 126.846 66.2898C126.822 66.11 126.791 65.8391 126.663 65.6983C126.522 65.5444 126.348 65.6343 126.173 65.6938C126.173 65.6938 126.165 65.6956 126.161 65.6965L126.159 65.6983L126.156 65.6977C125.995 65.7426 125.892 65.6396 125.864 65.5084C125.821 65.486 125.779 65.4616 125.734 65.4443C124.983 65.1583 124.355 65.6944 124.347 66.4023C124.417 66.3407 124.488 66.2948 124.56 66.263C124.777 66.0224 125.196 66.0841 125.402 66.3737C125.377 66.3954 125.353 66.4178 125.328 66.4401C125.449 66.5571 125.554 66.7113 125.633 66.8914C125.86 67.4144 125.984 68.0413 126.006 68.6188C126.234 68.6501 126.471 68.5679 126.617 68.325C126.763 68.0839 126.839 67.7969 126.859 67.4993C126.858 67.4876 126.857 67.4763 126.858 67.4635Z" fill="#232323"/>
<path d="M186.106 39.6448C167.824 41.2094 150.23 47.9719 135.256 58.517C133.901 59.4708 132.57 60.457 131.262 61.4721C131.252 61.4566 131.245 61.4411 131.232 61.4262C129.917 59.8571 130.32 57.8895 131.715 56.493C131.75 56.4576 131.702 56.4118 131.663 56.4323C129.578 57.4989 129.24 59.9604 130.201 61.9689C130.245 62.0603 130.307 62.1234 130.379 62.1669C130.304 62.2267 130.23 62.2877 130.155 62.3476C130.07 62.2734 129.979 62.2065 129.874 62.155C129.323 61.8838 128.664 62.0424 128.272 62.5077C128.03 62.7938 127.847 63.2853 127.926 63.685C127.554 63.6002 127.146 63.6895 126.843 63.9351C126.551 64.1709 126.301 64.6257 126.286 65.0416C126.465 64.9957 126.638 65.0097 126.791 65.0743C126.866 64.9532 126.942 64.8311 127.049 64.7311C127.233 64.5614 127.361 64.5323 127.444 64.5861C127.244 64.757 127.046 64.9291 126.847 65.1011C127.066 65.2142 127.241 65.4307 127.333 65.7185C127.347 65.762 127.357 65.8069 127.369 65.851C127.391 65.8313 127.413 65.8114 127.435 65.792C127.422 65.8403 127.405 65.887 127.391 65.934C127.486 66.3654 127.476 66.8262 127.448 67.2674C127.574 67.3415 127.73 67.3677 127.867 67.3305C128.1 67.2674 128.266 67.1316 128.389 66.956C128.338 66.8979 128.313 66.8208 128.339 66.7312C128.488 66.2273 128.659 65.7301 128.772 65.2172C128.787 65.1505 128.801 65.0833 128.814 65.016C128.814 64.8844 128.809 64.7528 128.786 64.6254C128.816 64.601 128.845 64.5763 128.874 64.5519C128.877 64.5055 128.88 64.4587 128.88 64.412C128.88 64.3504 128.784 63.8074 128.774 63.8154C128.633 63.9312 128.477 63.8904 128.386 63.7886C128.363 63.8092 128.338 63.8285 128.314 63.8485L128.312 63.847C128.334 63.8226 128.353 63.7967 128.373 63.7708C128.296 63.669 128.281 63.5192 128.4 63.3996C128.556 63.243 128.695 63.1686 128.816 63.1543C128.948 63.0179 129.115 62.8995 129.257 62.9617C129.284 62.9736 129.306 62.992 129.326 63.0129C129.241 63.0822 129.156 63.1537 129.071 63.2236C129.279 63.3716 129.404 63.7279 129.445 64.0634C129.522 64.699 129.391 65.3369 129.206 65.9549C129.496 66.0829 129.9 65.9998 130.081 65.7346C130.29 65.4313 130.345 65.0663 130.456 64.7186C130.564 64.3772 130.673 64.0241 130.684 63.6627C130.684 63.6478 130.682 63.6327 130.682 63.6178C130.846 63.6669 131.017 63.6678 131.201 63.6958C131.534 63.7467 131.843 63.8419 132.128 64.0262C132.685 64.3867 133.054 64.996 133.203 65.6334C133.211 65.6721 133.268 65.6587 133.273 65.6247C133.381 64.8389 133.167 64.1039 132.614 63.5255C132.283 63.1808 131.673 62.7688 131.112 62.7119C140.124 55.4839 150.288 49.6913 161.129 45.6907C169.168 42.724 177.585 40.7316 186.106 39.813C186.222 39.8005 186.226 39.6344 186.106 39.6448Z" fill="#232323"/>
<path d="M123.841 67.0313C123.303 66.5723 122.746 66.2927 122.366 65.6575C121.925 64.9219 121.657 63.8955 121.784 63.0406C121.789 63.012 121.747 62.9929 121.732 63.0206C121.214 63.9586 120.996 64.8415 121.455 65.8683C121.804 66.6446 122.589 67.4787 123.449 67.6374C123.782 67.6987 124.174 67.315 123.841 67.0313Z" fill="#232323"/>
<path d="M102.599 94.2362C102.882 93.8513 103.308 93.4968 103.728 93.6983C103.656 93.8347 103.588 93.9722 103.517 94.1088C104.302 94.2639 104.782 95.4972 104.99 96.5567C105.334 95.7446 105.286 94.5562 104.84 93.7918C108.271 87.0791 112.983 80.8229 117.911 75.2593C119.905 73.0085 121.997 70.8449 124.174 68.7707C124.389 69.408 124.478 70.0933 124.292 70.7482C124.086 71.4805 123.529 71.9359 123.137 72.5509C123.1 72.6072 123.165 72.6548 123.218 72.6459C124.847 72.3694 125.564 70.5407 125.451 68.9534C125.418 68.9112 125.397 68.8558 125.396 68.7855C125.391 68.6025 125.367 68.4129 125.334 68.2238C125.297 68.0792 125.253 67.9383 125.199 67.8053C125.212 67.794 125.225 67.7821 125.238 67.7708C125.22 67.7008 125.203 67.6299 125.185 67.563C125.13 67.3605 125.064 67.0539 124.911 66.8941C124.895 66.8777 124.881 66.8655 124.868 66.8554C124.743 66.9679 124.617 67.0801 124.492 67.1941C124.17 67.2165 123.854 67.4638 123.838 67.8017C120.741 70.6949 117.816 73.7726 115.088 77.0233C112.122 80.5592 109.392 84.2927 106.935 88.1989C105.922 89.8094 104.938 91.4496 104.03 93.1289C103.265 92.9246 102.243 93.3164 102.528 94.2276C102.537 94.2595 102.581 94.2606 102.599 94.2362Z" fill="#232323"/>
<path d="M101.852 96.4102C102.1 96.0497 102.363 95.6511 102.801 95.5308C102.707 95.727 102.619 95.9253 102.527 96.1223C102.938 96.0039 103.284 96.1432 103.571 96.4248C103.622 96.3149 103.673 96.2051 103.723 96.0953C103.755 96.1911 103.78 96.2917 103.797 96.3929C103.815 96.5043 103.824 96.6168 103.827 96.7293C104.101 97.1184 104.311 97.6286 104.468 98.1126C104.601 97.8066 104.663 97.4426 104.659 97.0708C104.666 97.0654 104.673 97.0594 104.679 97.055C104.591 96.5388 104.432 95.8806 104.191 95.3558C104.186 95.385 104.182 95.4144 104.176 95.4433C104.145 95.4019 104.114 95.3606 104.081 95.324C104.096 95.2918 104.113 95.2591 104.128 95.2269C103.921 94.8188 103.657 94.5161 103.333 94.4693C103.256 94.6199 103.176 94.7694 103.101 94.9212C102.975 94.9316 102.85 94.9626 102.732 95.0215C102.199 95.285 101.987 95.8696 101.821 96.3989C101.815 96.4168 101.842 96.4239 101.852 96.4102Z" fill="#232323"/>
<path d="M145.005 119.089C144.912 119.111 144.818 119.132 144.724 119.152C144.832 119.113 144.939 119.073 145.046 119.033C145.096 118.963 145.148 118.894 145.201 118.827C145.193 118.808 145.183 118.791 145.168 118.778C144.353 118.082 143.255 118.354 142.42 119.03C142.422 119.014 142.42 118.998 142.422 118.983C141.704 119.585 140.929 120.433 140.761 121.19C140.909 121.162 141.058 121.135 141.206 121.107C141.172 121.512 141.261 121.911 141.511 122.263C141.81 122.684 142.659 122.695 142.799 122.112C142.909 121.653 142.877 121.204 142.959 120.775C143.397 120.689 143.834 120.6 144.271 120.51C144.429 120.017 144.687 119.537 145.005 119.089Z" fill="#232323"/>
<path d="M146.44 120.053C146.561 120.026 146.681 119.998 146.802 119.971C146.798 119.196 147.056 118.38 147.412 117.626C147.135 117.66 146.869 117.739 146.621 117.858C146.642 117.932 146.628 118.016 146.553 118.085C145.552 119.001 144.647 120.192 144.579 121.444C144.586 121.636 144.609 121.824 144.65 122.007C144.777 122.568 145.499 122.674 145.934 122.476C145.978 122.457 146.023 122.436 146.068 122.416C146.328 122.297 146.465 122.032 146.486 121.759C146.501 121.555 146.419 121.391 146.289 121.268C146.243 120.809 146.302 120.408 146.44 120.053Z" fill="#232323"/>
<path d="M201.431 94.1844C201.237 94.5327 201.077 94.8908 200.975 95.2814C201.146 95.1611 201.314 95.0367 201.484 94.9146C201.443 94.6842 201.427 94.4392 201.431 94.1844Z" fill="#232323"/>
<path d="M201.431 94.1844C201.388 94.263 201.347 94.3419 201.307 94.4214C201.316 94.6158 201.335 94.809 201.364 95.0007C201.404 94.9721 201.444 94.9429 201.484 94.9143C201.443 94.6842 201.428 94.4392 201.431 94.1844Z" fill="#232323"/>
<path d="M193.773 99.8615L193.771 99.863C193.688 99.2718 193.484 98.7053 193.446 98.0987C193.394 97.2669 193.517 96.4435 193.79 95.6571C194.275 94.2636 195.202 93.3384 196.253 92.3567C196.374 92.2432 196.238 92.0375 196.085 92.0962C194.679 92.6281 193.57 93.8891 192.961 95.24C192.317 96.6701 191.979 98.9968 192.915 100.369L192.916 100.37C184.21 105.534 175.008 109.868 165.478 113.28C160.158 115.185 154.742 116.786 149.258 118.113C149.419 117.842 149.545 117.549 149.717 117.269C150.022 116.771 150.387 116.335 150.807 115.929C151.658 115.107 152.821 114.378 153.981 114.096C154.03 114.083 154.018 114.016 153.969 114.016C152.559 114.02 151.38 114.285 150.195 115.097C149.432 115.618 148.318 116.606 148.004 117.625C147.977 117.622 147.95 117.621 147.923 117.619C147.56 118.343 147.281 119.115 147.258 119.868C147.286 119.862 147.314 119.856 147.341 119.85C147.58 120.974 149.025 121.913 149.995 122.209C151.396 122.635 153.136 122.3 153.99 121.03C154.052 120.937 153.939 120.817 153.838 120.853C152.739 121.246 151.574 121.513 150.45 121.033C149.96 120.823 149.537 120.481 149.203 120.069C149.056 119.888 148.942 119.694 148.82 119.509C164.538 115.805 179.719 109.68 193.601 101.46C193.494 102.473 193.296 103.408 192.776 104.377C192.475 104.939 192.121 105.438 191.705 105.921C191.335 106.351 190.838 106.723 190.579 107.233C190.562 107.268 190.585 107.312 190.628 107.309C191.896 107.223 193.024 105.835 193.643 104.833C194.176 103.97 194.613 102.892 194.758 101.822C194.204 101.348 193.889 100.637 193.773 99.8615Z" fill="#232323"/>
<path d="M196.322 100.045L196.302 100.045C196.25 100.002 196.202 99.958 196.162 99.9118C196.197 99.8901 196.232 99.8684 196.267 99.8464C196.161 99.3927 196.159 98.8842 196.238 98.3704C196.22 98.3818 196.201 98.3937 196.183 98.405C196.206 98.3565 196.231 98.3073 196.256 98.2579C196.404 97.4202 196.759 96.5832 197.21 95.9667C197.171 95.9339 197.12 95.9146 197.069 95.9155C195.771 95.9303 194.579 97.4509 194.271 98.6104C194.215 98.8229 194.188 99.0399 194.184 99.2569C194.225 99.9529 194.418 100.621 194.809 101.12C194.809 101.11 194.809 101.099 194.809 101.089C195.06 101.388 195.381 101.629 195.765 101.779C196.297 101.987 196.955 101.879 197.162 101.267C197.173 101.236 197.183 101.204 197.194 101.173C196.753 100.915 196.472 100.518 196.322 100.045Z" fill="#232323"/>
<path d="M199.276 99.237C199.006 99.1694 198.687 99.1843 198.5 98.9488C198.415 98.8426 198.375 98.6955 198.358 98.5357C198.627 98.3645 198.896 98.1901 199.165 98.0168C198.957 97.6322 198.84 97.1952 198.82 96.7391C198.796 96.754 198.773 96.7701 198.75 96.785C198.771 96.7436 198.795 96.7043 198.817 96.6632C198.81 96.312 198.86 95.9509 198.968 95.5948C197.918 95.9821 197.029 96.9178 196.789 98.0281C196.786 98.0299 196.783 98.0317 196.783 98.0317C196.68 98.552 196.665 99.0718 196.772 99.5326C196.825 99.4996 196.878 99.4671 196.931 99.4341C197.422 100.461 198.69 101.307 199.589 100.305C199.932 99.9238 199.8 99.3683 199.276 99.237Z" fill="#232323"/>
<path d="M201.509 97.6408C201.134 97.6652 200.961 97.3134 200.891 96.8859C201.027 96.7942 201.162 96.7007 201.297 96.6082C200.914 95.7997 200.788 94.926 200.831 94.0505C200.168 94.5866 199.731 95.3889 199.58 96.2381C199.493 96.2962 199.405 96.353 199.318 96.4111C199.321 96.7007 199.372 96.999 199.48 97.3092C199.53 97.4536 199.588 97.5849 199.652 97.7042C199.659 97.6998 199.666 97.6953 199.673 97.6905C199.688 97.7352 199.705 97.779 199.722 97.8227C200.168 98.5452 200.891 98.7905 201.809 98.8655C201.873 98.8223 201.938 98.7723 202.004 98.7152C202.452 98.3258 202.069 97.6045 201.509 97.6408Z" fill="#232323"/>
<path d="M181.905 72.0553C181.388 71.2516 181.01 70.4567 180.955 69.5807C180.908 69.6729 180.867 69.7667 180.836 69.8608C179.932 70.1382 179.03 70.4273 178.133 70.7306C178.052 71.1492 177.968 71.5677 177.886 71.9862C178.767 71.6856 179.654 71.4007 180.543 71.1233C180.436 71.6126 180.458 72.152 180.314 72.6304C180.113 73.2993 179.647 73.7976 179.413 74.4338C179.21 74.9839 179.981 75.1574 180.319 74.9086C181.045 74.3751 181.532 72.8647 181.356 71.7296C181.513 71.8672 181.698 71.9779 181.905 72.0553Z" fill="#232323"/>
<path d="M182.509 72.0068C182.704 71.8883 182.848 71.6871 182.86 71.4796C182.723 71.3135 182.615 71.1423 182.529 70.9667C182.396 70.8637 182.261 70.7556 182.147 70.6345C182.223 70.6118 182.3 70.5892 182.376 70.566C182.272 70.1995 182.251 69.8179 182.288 69.4265C182.177 69.4592 182.066 69.4914 181.955 69.5241C182.053 69.3208 182.207 69.144 182.355 68.9603C182.368 68.8921 182.382 68.8237 182.397 68.7552C182.368 68.7266 182.327 68.7067 182.29 68.7025C181.958 68.6677 181.648 68.801 181.396 69.018C181.335 70.1695 181.878 71.0021 182.509 72.0068Z" fill="#232323"/>
<path d="M184.269 70.0263C184.205 69.6563 184.182 69.2776 184.182 68.8945C184.036 68.9344 183.89 68.974 183.743 69.0139C183.781 68.9064 183.827 68.801 183.881 68.7001C183.931 68.6093 184.2 68.278 184.054 68.1613C183.593 67.7904 182.93 68.6409 182.769 68.9853C182.763 68.9981 182.758 69.013 182.752 69.0261C182.748 69.0552 182.741 69.0841 182.737 69.1133C182.612 69.9156 182.811 70.5478 183.269 71.1703C183.538 71.206 183.823 71.0863 183.937 70.8274C184.045 70.5818 183.935 70.3674 183.824 70.1489C183.972 70.1081 184.121 70.0677 184.269 70.0263Z" fill="#232323"/>
<path d="M186.07 68.4057C185.978 68.4283 185.887 68.4506 185.795 68.4733C185.674 68.1786 185.732 67.8657 185.642 67.5665C185.596 67.4111 185.42 67.3873 185.291 67.4379C184.802 67.629 184.666 68.2777 184.697 68.754C184.667 68.7617 184.637 68.7704 184.607 68.7781C184.637 69.163 184.676 69.5309 184.749 69.8941C184.859 69.864 184.969 69.8325 185.079 69.8033C185.231 70.0063 185.425 70.1796 185.661 70.3055C186.176 70.5797 186.702 70.2088 186.792 69.7849C186.82 69.8152 186.853 69.8435 186.891 69.8694C186.577 69.3967 186.27 68.9153 186.07 68.4057Z" fill="#232323"/>
<path d="M213.744 78.8121C213.43 74.5445 210.677 71.0691 207.037 69.0043C202.558 66.4642 197.282 66.3448 192.311 67.134C190.741 67.3838 189.173 67.6889 187.608 68.0416C187.533 67.5963 187.405 67.1617 187.399 66.6955C187.389 66.0141 187.507 65.3491 187.736 64.7076C188.201 63.4031 189.076 62.3568 190.049 61.3965C190.074 61.3729 190.041 61.3471 190.016 61.3569C188.687 61.8876 187.753 62.99 187.164 64.2757C186.685 65.322 186.191 67.0006 186.476 68.2319C186.815 68.9225 187.376 69.5289 187.716 70.2382C188.042 70.3904 188.333 70.5806 188.555 70.9446C189.026 71.7133 188.731 72.5099 188.286 73.2064C188.238 73.2817 188.337 73.3389 188.401 73.31C190.211 72.4866 189.974 69.8941 188.51 68.9531C188.995 68.8415 189.481 68.7326 189.968 68.629C195.162 67.5222 200.912 67.0277 205.773 69.5884C209.76 71.6882 212.717 75.618 212.375 80.2818C212.036 84.9027 208.755 88.8163 205.443 91.7741C204.586 92.5385 203.692 93.2622 202.775 93.96C202.768 93.7956 202.765 93.6313 202.773 93.4679C202.808 92.7198 202.945 91.9896 203.152 91.2704C203.57 89.8246 204.263 88.5451 205.14 87.3279C205.172 87.2832 205.102 87.2562 205.07 87.2794C203.799 88.1793 202.835 89.4444 202.231 90.8793C201.929 91.5976 201.58 92.6523 201.468 93.6537C201.414 93.6781 201.361 93.7049 201.309 93.7325C201.298 93.9627 201.296 94.1928 201.307 94.4217C201.347 94.3422 201.388 94.2633 201.432 94.1847C201.428 94.4392 201.444 94.6845 201.484 94.9146C201.444 94.9432 201.405 94.9724 201.364 95.001C201.433 95.4531 201.56 95.8958 201.767 96.3206C201.932 96.6611 202.139 96.9627 202.378 97.2327C202.975 97.6962 203.772 97.9829 204.404 98.035C205.491 98.1252 206.697 97.7304 207.3 96.7746C207.354 96.6891 207.243 96.6239 207.17 96.6576C206.282 97.063 205.387 97.3634 204.433 96.9541C203.69 96.635 203.397 96.0193 202.906 95.4776C205.003 93.9576 206.997 92.3046 208.755 90.3919C211.636 87.2556 214.07 83.2309 213.744 78.8121Z" fill="#232323"/>
<path d="M138.713 120.278C138.708 120.292 138.705 120.305 138.7 120.318L138.67 120.324C138.604 121.143 138.843 121.992 139.33 122.709C139.574 122.873 139.871 122.98 140.22 123C140.556 123.02 140.799 122.851 140.917 122.616C139.426 121.75 141.003 119.654 142.294 118.564C142.165 118.391 141.949 118.261 141.667 118.23C140.404 118.092 139.158 119.164 138.713 120.278Z" fill="#232323"/>
<path d="M94.5637 143.412C95.1138 142.035 96.0872 140.794 97.3872 140.052C97.9355 139.739 98.5359 139.488 99.1429 139.315C99.4558 139.225 99.7749 139.182 100.091 139.129C100.064 139.183 100.039 139.238 100.012 139.292C99.8701 139.318 99.7371 139.35 99.6207 139.387C99.0604 139.565 97.7905 140.306 98.1156 141.06C98.1198 141.069 98.1245 141.076 98.1296 141.083C99.3581 140.386 100.871 140.195 102.264 140.4C102.313 140.287 102.328 140.162 102.29 140.048C102.177 139.706 101.91 139.494 101.579 139.371C101.598 139.334 101.615 139.296 101.633 139.26C104.048 139.56 106.934 137.559 107.592 135.345C107.619 135.253 107.487 135.223 107.439 135.287C106.653 136.334 105.787 137.202 104.555 137.704C103.751 138.032 103.011 138.044 102.235 138.038C104.918 132.692 107.978 127.533 111.375 122.606C114.795 123.464 118.413 123.578 121.909 123.429C127.009 123.211 132.119 122.591 137.16 121.802C137.413 121.763 137.665 121.719 137.917 121.679C137.86 122.03 137.8 122.381 137.682 122.722C137.418 123.488 136.998 124.195 136.452 124.794C135.52 125.816 134.366 126.265 133.162 126.854C133.085 126.892 133.135 126.978 133.202 126.985C134.677 127.147 136.237 126.316 137.265 125.314C137.891 124.705 138.527 123.829 138.907 122.895C138.169 121.751 137.995 120.266 138.58 119.084C138.663 118.541 138.806 118.009 138.998 117.494C139.491 116.174 140.312 115.028 141.255 113.992C141.326 113.914 141.23 113.81 141.14 113.858C139.825 114.567 138.848 115.688 138.216 117.035C137.782 117.961 137.257 119.393 137.377 120.546C136.966 120.614 136.556 120.684 136.145 120.749C131.265 121.528 126.306 122.139 121.364 122.329C118.278 122.449 115.076 122.36 112.036 121.658C114.069 118.764 116.222 115.955 118.479 113.234C118.522 113.467 118.556 113.703 118.566 113.943C118.593 114.663 118.503 115.383 118.603 116.1C118.615 116.186 118.708 116.214 118.775 116.164C119.833 115.372 120.257 113.667 119.997 112.297C120.097 112.328 120.201 112.352 120.316 112.355C120.656 112.366 120.94 112.105 120.965 111.772C120.992 111.407 120.77 111.109 120.536 110.812C120.777 110.535 121.017 110.257 121.26 109.982C121.491 110.095 121.751 110.133 122.038 110.056C122.414 109.955 122.62 109.632 122.545 109.251C122.507 109.057 122.409 108.935 122.291 108.833C122.498 108.605 122.702 108.374 122.909 108.148C122.933 108.159 122.957 108.173 122.981 108.182C123.327 108.317 123.728 108.313 123.983 108.002C124.196 107.743 124.219 107.309 123.922 107.085C123.917 107.081 123.911 107.077 123.906 107.073C124.662 106.268 125.428 105.473 126.202 104.686C126.361 103.916 126.534 103.149 126.713 102.382C125.707 103.367 124.717 104.369 123.742 105.385C123.581 105.058 123.362 104.763 123.214 104.416C122.96 103.824 122.799 103.188 122.736 102.548C122.626 101.432 122.951 100.435 123.062 99.3486C123.069 99.2784 122.962 99.2525 122.919 99.2956C122.075 100.144 121.821 101.546 121.816 102.706C121.812 103.442 121.9 104.41 122.209 105.213C122.188 105.218 122.169 105.228 122.153 105.242C121.581 105.759 121.629 106.59 121.99 107.252C121.811 107.446 121.636 107.643 121.458 107.837C121.424 107.746 121.395 107.653 121.374 107.561C121.296 107.212 121.366 106.898 121.369 106.549C121.37 106.419 121.388 106.226 121.22 106.183C120.42 105.978 120.108 107.491 120.139 108.011C120.157 108.313 120.249 108.668 120.401 109C120.242 109.178 120.087 109.358 119.928 109.537C119.846 109.101 119.834 108.659 119.813 108.207C119.804 108.009 119.525 107.899 119.384 108.047C118.791 108.665 118.63 109.535 118.771 110.365C118.793 110.493 118.822 110.626 118.857 110.761C118.723 110.917 118.59 111.073 118.457 111.23C118.395 111.281 118.343 111.34 118.304 111.409C118.282 111.435 118.26 111.461 118.238 111.487C117.472 111.043 116.276 111.201 115.485 111.381C114.41 111.626 113.341 112.219 112.771 113.188C112.738 113.243 112.806 113.287 112.854 113.264C113.803 112.818 114.725 112.432 115.789 112.401C116.288 112.387 116.774 112.55 117.255 112.654C114.934 115.441 112.722 118.318 110.639 121.285C110.047 121.107 109.462 120.904 108.89 120.669C104.771 118.976 101.716 115.597 100.848 111.176C100.105 107.394 100.879 103.464 102.175 99.8413C102.706 100.244 103.156 100.736 103.442 101.361C103.875 102.308 103.789 103.233 103.735 104.235C103.734 104.268 103.783 104.274 103.798 104.25C104.65 102.91 104.336 101.208 103.447 99.9455C103.542 99.9452 103.638 99.9136 103.713 99.8502C104.028 99.5802 104.102 99.0962 104.08 98.6538C104.099 98.6384 104.116 98.6187 104.133 98.602C104.036 98.2529 103.91 97.851 103.747 97.4911C103.747 97.4911 103.745 97.4979 103.744 97.5015C103.625 97.3163 103.477 97.1496 103.302 97.0199C103.326 96.9672 103.35 96.9151 103.373 96.8627C103.098 96.5287 102.752 96.3664 102.32 96.5689C102.291 96.632 102.26 96.6942 102.232 96.7573C101.743 96.8383 101.311 97.1732 101.212 97.7129C101.209 97.7292 101.234 97.7405 101.243 97.7242C101.425 97.3705 101.719 97.2303 102.02 97.2428C101.857 97.6233 101.697 98.0061 101.545 98.3919C100.814 98.2019 99.9809 98.3368 99.3459 98.7297C98.6312 99.1727 98.2576 99.972 98.0742 100.767C98.0715 100.78 98.0915 100.784 98.096 100.772C98.3814 100.032 98.9432 99.5755 99.6823 99.3215C100.223 99.1355 100.699 99.1798 101.204 99.2915C101.003 99.8398 100.816 100.393 100.643 100.953C99.3144 105.243 98.7759 110.088 100.627 114.312C102.259 118.037 105.467 120.603 109.239 121.96C109.487 122.05 109.738 122.134 109.989 122.215C108.427 124.481 106.933 126.796 105.516 129.156C103.77 132.063 102.126 135.044 100.602 138.088C99.2888 137.894 97.7399 138.775 96.7918 139.578C95.5981 140.59 94.7438 141.838 94.3574 143.361C94.3264 143.488 94.5187 143.524 94.5637 143.412ZM102.946 97.8614C103.094 98.1335 103.148 98.4469 103.138 98.7545C103.129 99.0078 103.048 99.2185 103.048 99.446C102.88 99.2638 102.698 99.0965 102.507 98.9471C102.648 98.58 102.797 98.2201 102.946 97.8614Z" fill="#232323"/>
<path d="M96.3902 145.506C96.5018 145.462 96.6132 145.42 96.7242 145.381C96.9636 145.203 97.2068 145.033 97.4616 144.884C97.419 144.985 97.3767 145.086 97.3342 145.187C97.9084 145.028 98.4773 144.935 99.0426 144.927C99.1158 144.755 99.1875 144.583 99.262 144.412C99.7097 144.449 100.145 144.552 100.596 144.47C101.027 144.391 101.198 143.836 100.868 143.544C100.664 143.365 100.414 143.263 100.141 143.215C99.198 143.301 98.2909 143.59 97.3833 144.07C97.3243 144.101 97.2711 144.095 97.2279 144.072C96.8111 144.412 96.4846 144.853 96.3488 145.389C96.3354 145.442 96.3563 145.481 96.3902 145.506Z" fill="#232323"/>
<path d="M96.1827 204.198C96.027 204.763 95.8775 205.329 95.7427 205.9C96.1431 206.361 96.6262 206.741 97.0552 206.937C97.0942 206.956 97.1346 206.972 97.1742 206.989C97.251 206.632 97.3299 206.275 97.4145 205.92C97.4532 205.757 97.4966 205.597 97.5371 205.435C97.0102 205.093 96.5417 204.683 96.1827 204.198Z" fill="#232323"/>
<path d="M96.7428 202.324C96.6026 202.762 96.4669 203.201 96.3389 203.643C96.6857 204.141 97.1533 204.531 97.6808 204.864C97.8228 204.323 97.9773 203.787 98.1372 203.254C97.6162 202.992 97.1039 202.727 96.7428 202.324Z" fill="#232323"/>
<path d="M130.499 163.058C130.554 162.385 130.651 161.712 130.755 161.055C130.211 161.469 129.67 161.886 129.131 162.306C121.126 168.529 113.434 175.3 107.156 183.303C106.599 184.013 106.054 184.734 105.521 185.466C102.37 184.155 99.514 182.215 97.2144 179.421C90.538 171.311 93.2886 160.145 96.5453 151.209C97.1585 149.526 97.8119 147.858 98.4998 146.205C99.0991 146.898 99.406 147.753 99.4218 148.731C99.4441 150.095 98.833 151.308 98.6409 152.626C98.6109 152.829 98.9157 152.83 99.0056 152.715C100.482 150.829 101.353 147.298 99.5376 145.422C98.7302 145.342 97.9339 145.448 97.0656 145.667C96.2955 146.366 95.5748 147.102 94.6791 147.654C93.8009 148.194 92.8177 148.667 91.8651 149.056C91.8264 149.071 91.8511 149.121 91.8847 149.121C93.3502 149.157 94.936 148.706 96.2354 147.869C95.4682 149.807 94.7532 151.764 94.0992 153.74C91.0343 163 89.7173 173.945 97.135 181.543C99.3494 183.811 101.909 185.47 104.672 186.661C101.392 191.361 98.6725 196.474 96.8816 201.902C97.2073 202.308 97.7256 202.582 98.2626 202.841C100.005 197.213 102.722 192.026 106.081 187.224C110.415 188.811 115.178 189.344 119.879 189.309C119.471 190.489 119.678 191.972 120.169 193.027C120.746 194.265 121.743 195.2 123.049 195.608C123.083 195.619 123.115 195.576 123.087 195.549C122.227 194.742 121.482 193.78 121.172 192.623C120.973 191.878 121.009 191.228 121.122 190.579C121.146 190.612 121.173 190.643 121.201 190.671C121.209 190.652 121.219 190.633 121.232 190.614C121.538 190.201 121.682 189.774 121.722 189.343C121.669 189.356 121.617 189.376 121.568 189.405C121.484 189.455 121.408 189.507 121.335 189.563C121.356 189.469 121.376 189.375 121.397 189.279C121.507 189.276 121.617 189.27 121.727 189.265C121.758 188.788 121.666 188.303 121.521 187.821C121.388 187.826 121.257 187.832 121.124 187.836C121.126 187.827 121.129 187.818 121.131 187.809C121.317 186.501 120.223 184.866 119.412 183.926C118.569 182.949 117.232 182.08 115.903 182.044C115.871 182.043 115.851 182.081 115.876 182.104C116.795 182.972 117.744 183.695 118.502 184.737C119.219 185.723 119.36 186.811 119.821 187.86C115.463 187.894 111.003 187.423 106.949 186.009C113.416 177.168 122.004 169.645 130.499 163.058Z" fill="#232323"/>
<path d="M184.986 237.283C185.053 238.208 185.317 239.103 185.818 239.86C186.232 240.092 186.929 239.91 186.89 239.355C186.865 238.997 186.78 238.654 186.7 238.308C186.794 238.254 186.888 238.197 186.982 238.142C186.824 237.54 186.796 236.877 186.842 236.211C186.771 236.254 186.7 236.297 186.628 236.338C186.702 235.939 186.805 235.546 186.875 235.132C186.928 234.812 186.513 234.556 186.267 234.813C185.745 235.361 185.37 236.24 185.231 237.147C185.149 237.193 185.068 237.238 184.986 237.283Z" fill="#232323"/>
<path d="M179.468 237.717C178.653 237.959 178.056 238.759 177.739 239.712C177.853 241.141 178.428 242.622 179.083 243.905C179.411 243.874 179.726 243.657 179.709 243.293C179.689 242.878 179.521 242.578 179.364 242.225C179.441 242.187 179.518 242.149 179.594 242.11C179.376 241.545 179.234 240.959 179.172 240.37C179.126 240.393 179.081 240.416 179.036 240.439C179.044 240.199 179.082 239.974 179.137 239.757C179.131 239.064 179.238 238.375 179.468 237.717Z" fill="#232323"/>
<path d="M177.379 241.239C177.164 241.341 176.951 241.443 176.735 241.544C176.77 241.445 176.77 241.328 176.72 241.194C176.201 239.799 175.696 238.62 175.796 237.083C175.893 235.594 176.63 234.486 177.08 233.118C177.11 233.03 176.994 232.972 176.924 233.01C174.324 234.435 173.905 239.41 175.534 241.644C175.638 241.787 175.805 241.866 175.983 241.891C174.191 242.712 172.381 243.49 170.551 244.22C161.786 247.718 152.465 250.287 143.074 251.344C140.115 251.677 137.098 251.86 134.081 251.833C134.197 251.544 134.3 251.245 134.46 250.973C134.798 250.396 135.246 249.897 135.769 249.483C136.862 248.617 138.05 248.533 139.302 248.089C139.472 248.028 139.55 247.799 139.358 247.702C138.045 247.041 136.227 247.727 135.086 248.464C134.099 249.101 132.592 250.472 132.441 251.796C132.164 251.787 131.887 251.774 131.611 251.762C130.765 252.738 130.112 253.806 130.198 255.157C130.486 256.035 131.081 256.87 131.674 257.37C132.777 258.3 134.476 258.835 135.825 258.143C135.957 258.075 135.928 257.878 135.782 257.848C134.641 257.617 133.482 257.389 132.664 256.48C132.291 256.065 132.006 255.522 131.858 254.987C131.715 254.469 131.791 253.935 131.661 253.429C136.529 253.67 141.443 253.327 146.225 252.62C156.541 251.097 166.653 248.039 176.195 243.717C176.191 243.736 176.188 243.755 176.184 243.775C176.016 244.54 175.745 245.288 175.359 245.971C174.599 247.316 173.463 248.097 172.453 249.209C172.371 249.299 172.426 249.464 172.564 249.449C174.116 249.286 175.438 248.021 176.306 246.803C176.937 245.917 177.821 244.316 177.857 242.999C177.879 243.039 177.905 243.075 177.928 243.113C177.682 242.516 177.496 241.882 177.379 241.239Z" fill="#232323"/>
<path d="M181.468 239.202C181.423 239.226 181.379 239.25 181.334 239.273C181.352 239.014 181.405 238.763 181.458 238.504C181.51 238.25 181.487 237.949 181.569 237.713C181.637 237.52 181.382 237.401 181.232 237.479C180.796 237.709 180.477 237.807 180.197 238.247C179.962 238.616 179.833 239.069 179.77 239.496C179.742 239.689 179.728 239.888 179.73 240.088C179.717 240.094 179.705 240.1 179.692 240.107C179.739 240.692 179.872 241.279 180.089 241.865C180.145 241.836 180.203 241.808 180.259 241.78C180.353 241.898 180.458 242.008 180.58 242.105C181.019 242.454 181.911 242.267 181.957 241.69C181.581 240.942 181.45 240.086 181.468 239.202Z" fill="#232323"/>
<path d="M183.899 240.055C183.884 240.005 183.868 239.957 183.855 239.907C184.196 239.722 184.535 239.532 184.873 239.343C184.656 238.786 184.533 238.179 184.492 237.561C184.26 237.691 184.029 237.823 183.796 237.951C183.918 237.397 184.143 236.871 184.193 236.307C184.216 236.037 183.869 235.957 183.679 236.042C182.615 236.517 182.146 237.681 182.063 238.886C182.039 238.899 182.015 238.911 181.992 238.924C181.967 239.571 182.017 240.204 182.192 240.792C182.205 240.785 182.217 240.779 182.23 240.772C182.283 240.983 182.347 241.183 182.421 241.365C182.696 242.046 183.459 242.145 184.017 241.744C184.186 241.636 184.341 241.512 184.481 241.369C185.037 240.867 184.54 240.061 183.899 240.055Z" fill="#232323"/>
<path d="M208.038 189.974C210.392 190.178 212.676 190.901 214.539 192.196C214.534 192.199 214.529 192.202 214.529 192.202C213.843 192.489 213.131 192.657 212.359 192.667C211.209 192.682 210.243 192.272 209.147 192.036C208.992 192.002 208.842 192.143 208.925 192.295C209.557 193.435 211.145 193.899 212.359 193.978C213.47 194.05 214.582 193.811 215.55 193.29C215.391 193.488 215.274 193.72 215.218 193.991C215.172 194.214 215.404 194.322 215.588 194.247C215.866 194.132 216.15 194.001 216.437 193.895C216.566 194.044 216.691 194.198 216.812 194.355C217.947 193.628 219.334 193.501 220.504 193.978C220.195 193.499 219.743 193.086 219.252 192.809C220.305 191.456 220.156 189.114 218.645 188.131C218.599 188.101 218.545 188.153 218.568 188.199C219.037 189.125 219.349 190.14 218.926 191.154C218.701 191.694 218.355 192.027 217.96 192.33C217.654 192.073 217.279 191.895 216.874 191.803C214.378 189.56 211.06 188.51 207.676 188.295C203.164 188.008 198.682 189.025 194.356 190.192C191.882 190.86 189.422 191.578 186.976 192.342C186.732 193.01 186.436 193.658 186.127 194.302C189.146 193.343 192.188 192.458 195.249 191.646C199.405 190.545 203.713 189.601 208.038 189.974Z" fill="#232323"/>
<path d="M216.917 195.54C216.919 195.571 216.95 195.594 216.981 195.584C217.153 195.53 217.332 195.466 217.512 195.405C217.677 195.694 217.825 195.998 217.964 196.31C219.166 195.302 220.58 195.489 221.745 196.265C221.639 195.664 221.291 195.082 220.824 194.656C220.821 194.647 220.817 194.639 220.814 194.63C219.698 193.939 218.309 194.032 217.081 194.722C217.091 194.736 217.102 194.749 217.112 194.763C216.967 194.976 216.891 195.234 216.917 195.54Z" fill="#232323"/>
<path d="M217.979 197.483C218.106 197.442 218.237 197.401 218.369 197.364C218.393 197.435 218.413 197.508 218.435 197.58C219.759 197.435 220.955 197.891 221.934 198.716C221.963 198.278 221.837 197.824 221.609 197.427C221.698 197.236 221.748 197.037 221.769 196.835C220.634 195.959 219.255 195.678 217.948 196.927C217.93 196.944 217.911 196.953 217.892 196.963C217.835 197.06 217.789 197.166 217.759 197.284C217.727 197.41 217.857 197.521 217.979 197.483Z" fill="#232323"/>
<path d="M221.653 199.543C221.667 199.525 221.681 199.508 221.693 199.488C221.749 199.399 221.791 199.306 221.827 199.212C220.919 198.435 219.832 197.965 218.573 198.062C218.607 198.188 218.641 198.314 218.67 198.441C218.551 198.314 218.419 198.2 218.278 198.095C218.079 198.124 217.875 198.166 217.667 198.225C217.373 198.308 217.213 197.866 217.508 197.774C217.555 197.76 217.602 197.748 217.648 197.735C217.335 197.601 217 197.518 216.655 197.502C215.694 197.455 213.894 198.089 214.011 199.314C214.014 199.356 214.058 199.374 214.095 199.357C214.86 199 215.382 198.375 216.324 198.493C217.274 198.612 217.765 199.365 218.094 200.181C218.223 200.502 218.643 200.649 218.977 200.588C219.175 203.885 218.178 207.239 216.531 210.105C214.081 214.372 210.466 217.896 206.896 221.226C203.414 224.474 199.731 227.506 195.876 230.3C193.686 231.888 191.437 233.394 189.138 234.82C189.03 234.234 188.953 233.643 189.032 232.997C189.18 231.774 189.75 230.775 190.16 229.639C190.183 229.575 190.1 229.545 190.053 229.565C188.783 230.126 187.839 231.644 187.48 233.25C187.571 233.229 187.681 233.282 187.667 233.393C187.583 234.022 187.456 234.709 187.375 235.402C187.397 235.551 187.426 235.698 187.463 235.841C187.417 235.868 187.371 235.895 187.324 235.923C187.273 236.594 187.286 237.258 187.443 237.869C187.458 237.861 187.473 237.851 187.488 237.843C187.826 238.338 188.381 238.747 188.928 238.878C189.818 239.09 190.806 238.956 191.706 238.897C192.852 238.822 194.018 238.754 195.148 238.544C195.362 238.504 195.356 238.2 195.148 238.156C193.958 237.902 192.719 237.801 191.508 237.699C190.951 237.652 190.383 237.654 189.83 237.567C189.338 237.489 189.141 237.364 189.059 237.132C189.248 237.046 189.393 236.897 189.426 236.68C193.347 234.278 197.127 231.662 200.726 228.84C204.755 225.68 208.594 222.259 212.152 218.576C215.582 215.026 218.868 210.996 220.229 206.158C220.699 204.49 220.93 202.705 220.869 200.935C221.107 201.208 221.306 201.513 221.476 201.832C222.031 202.873 221.949 203.798 221.832 204.93C221.814 205.099 222.082 205.174 222.185 205.062C223.02 204.145 223.091 202.627 222.773 201.478C222.601 200.858 222.198 200.097 221.653 199.543Z" fill="#232323"/>
<path d="M130.034 253.326C130.449 252.373 131.2 251.542 131.992 250.78C132.024 250.714 132.055 250.647 132.08 250.58C132.151 250.388 131.914 250.221 131.743 250.276C130.999 250.516 130.357 251.136 129.757 251.645C129.6 251.632 129.444 251.618 129.289 251.604C128.725 252.033 128.208 252.541 127.844 253.116C127.885 253.121 127.927 253.126 127.969 253.131C127.855 253.241 127.747 253.357 127.642 253.476C127.547 253.668 127.47 253.867 127.415 254.072C127.532 254.437 128.082 254.706 128.43 254.468C128.907 254.141 129.327 253.729 129.732 253.304C129.833 253.312 129.933 253.319 130.034 253.326Z" fill="#232323"/>
<path d="M130.239 250.305C128.991 250.403 127.79 250.746 126.708 251.311C126.166 251.236 125.625 251.155 125.087 251.062C125.847 250.736 126.616 250.716 127.408 250.485C127.555 250.442 127.657 250.245 127.512 250.131C127.094 249.803 126.55 249.679 125.993 249.677C124.256 250.552 122.491 251.686 121.893 253.5C122.06 253.573 122.254 253.59 122.454 253.517C122.741 253.412 122.964 253.327 123.23 253.178C123.561 252.992 123.629 252.689 123.529 252.433C123.948 252.518 124.369 252.597 124.791 252.671C124.453 252.989 124.139 253.336 123.853 253.712C123.261 254.488 124.746 255.244 125.235 254.439C125.569 253.877 125.954 253.372 126.385 252.929C126.707 252.975 127.03 253.017 127.353 253.057C127.693 252.491 128.175 251.982 128.715 251.551C128.589 251.539 128.463 251.527 128.338 251.514C128.636 251.37 128.947 251.247 129.271 251.146C129.684 250.871 130.113 250.641 130.523 250.462C130.472 250.365 130.374 250.295 130.239 250.305Z" fill="#232323"/>
<path d="M126.938 249.495C126.993 249.49 127.053 249.42 126.994 249.374C126.943 249.336 126.889 249.302 126.836 249.268C126.64 249.361 126.441 249.456 126.241 249.554C126.467 249.535 126.699 249.517 126.938 249.495Z" fill="#232323"/>
<path d="M125.542 294.768C116.898 298.214 106.478 296.507 99.5229 290.276C94.8686 286.107 91.9645 280.29 91.2313 274.184C92.0302 274.518 92.7748 274.848 93.474 275.464C94.3587 276.244 94.8597 277.203 95.3786 278.237C95.4441 278.367 95.6328 278.289 95.6498 278.171C95.8677 276.616 95.0904 274.989 93.8884 273.861C93.8306 274.007 93.6565 274.104 93.502 273.972C92.1821 272.847 90.5079 272.438 89.1651 273.006C89.1752 273.15 89.1829 273.294 89.1945 273.438C88.9653 273.374 88.7093 273.406 88.5104 273.538C88.5539 273.454 88.5986 273.371 88.6438 273.289C88.4223 273.438 88.2142 273.619 88.0237 273.833C88.0538 273.885 88.0851 273.936 88.1226 273.986C88.138 274.007 88.1642 274.019 88.1907 274.023C87.9243 274.872 87.8916 275.791 87.6061 276.646C87.2864 277.604 86.8494 278.454 86.315 279.307C86.2802 279.363 86.3555 279.422 86.4073 279.39C87.6171 278.636 88.9355 277.25 89.491 275.747C90.7059 282.788 94.7192 289.357 100.584 293.463C108.099 298.724 118.09 299.739 126.574 296.355C127.799 295.866 126.658 294.323 125.542 294.768Z" fill="#232323"/>
<path d="M93.0863 271.889C92.5219 271.357 91.9218 270.85 91.2273 270.525C91.2558 270.571 91.2844 270.617 91.3121 270.664C91.2264 270.645 91.14 270.629 91.0534 270.617C91.0543 270.561 91.0558 270.506 91.0567 270.45C90.8233 270.353 90.5795 270.275 90.322 270.226C89.8939 270.144 89.4939 270.167 89.1221 270.266C89.114 270.503 89.1075 270.74 89.1048 270.977C88.3121 271.481 87.6411 272.52 87.8605 273.433C89.1462 271.97 91.2314 271.884 92.9583 272.925C93.1994 272.774 93.3381 272.516 93.2092 272.159C93.1753 272.064 93.1324 271.975 93.0863 271.889Z" fill="#232323"/>
<path d="M90.7084 268.503C89.4567 268.395 88.5618 269.463 87.7334 270.239C87.6729 270.296 87.6003 270.308 87.5327 270.293C87.5205 270.405 87.5178 270.517 87.5292 270.628C88.0593 270.079 88.7255 269.697 89.5629 269.64C90.8034 269.554 91.9899 270.175 92.9342 270.99C92.9473 270.955 92.9601 270.921 92.9663 270.881C93.0729 270.206 92.8654 269.606 92.4787 269.134C91.9125 268.835 91.3356 268.557 90.7084 268.503Z" fill="#232323"/>
<path d="M93.5096 267.942C92.3963 266.641 90.7394 266.064 88.9247 266.301C88.9455 266.332 88.9646 266.365 88.986 266.395C87.8908 266.952 87.3547 268.098 87.4732 269.372C87.4842 269.489 87.6322 269.548 87.7241 269.5C87.742 269.482 87.759 269.463 87.7771 269.444C87.7822 269.433 87.789 269.424 87.7917 269.411C87.9662 268.644 88.6029 267.868 89.3706 267.548C89.3403 267.759 89.3129 267.971 89.2876 268.184C88.7672 268.376 88.2552 268.794 87.917 269.298C88.5853 268.619 89.4084 268 90.3482 267.941C90.6429 267.922 90.9406 267.96 91.2362 268.035C91.243 267.975 91.249 267.914 91.257 267.854C91.3556 267.938 91.449 268.031 91.5413 268.128C92.0521 268.304 92.5493 268.583 93.0032 268.88C93.3777 268.733 93.6656 268.381 93.5176 267.961C93.5156 267.954 93.512 267.948 93.5096 267.942Z" fill="#232323"/>
<path d="M118.842 243.438C118.711 243.402 118.533 243.55 118.633 243.682C119.426 244.74 120.249 245.608 120.556 246.946C120.713 247.633 120.737 248.364 120.617 249.059C120.562 249.381 120.452 249.683 120.35 249.987C119.154 249.644 117.971 249.249 116.808 248.793C113.006 247.305 109.573 245.174 106.657 242.5C106.877 242.281 107.097 242.063 107.317 241.847C113.277 235.988 119.613 230.514 126.266 225.457C126.019 224.842 125.858 224.205 125.789 223.562C118.547 228.963 111.682 234.864 105.366 241.247C102.592 238.39 100.366 234.997 98.843 231.164C95.8808 223.709 95.484 215.361 97.0617 207.529C96.6104 207.332 96.1841 207.095 95.8278 206.758C95.751 206.685 95.6751 206.606 95.6004 206.524C95.4039 207.412 95.2318 208.307 95.0892 209.209C93.7276 217.816 94.6552 226.918 98.6531 234.737C100.126 237.618 102.011 240.186 104.214 242.423C103.629 243.025 103.047 243.631 102.473 244.242C96.8402 250.229 91.5891 257.267 89.7717 265.373C89.689 265.25 89.6092 265.124 89.5369 264.991C89.1356 264.25 88.865 263.415 88.7206 262.585C88.5846 261.799 88.5795 260.967 88.6834 260.176C88.7897 259.366 89.1546 258.623 89.2645 257.82C89.2746 257.749 89.1719 257.739 89.1311 257.77C87.7442 258.842 87.5094 261.245 87.6939 262.853C87.8047 263.818 88.1199 264.911 88.6468 265.85C89.6479 265.56 90.6606 265.623 91.5837 265.953C91.6087 265.832 91.6323 265.71 91.6599 265.589C91.7379 265.764 91.8838 265.92 92.0993 266.001C93.638 266.585 95.6694 266.025 97.0367 265.238C98.4209 264.44 99.5727 263.154 100.015 261.603C100.062 261.438 99.8132 261.362 99.7289 261.494C98.9103 262.77 97.8681 263.751 96.4592 264.348C95.0241 264.958 93.7887 264.794 92.297 264.686C92.1127 264.673 91.9669 264.713 91.8558 264.785C93.9959 256.527 99.5896 249.672 105.502 243.661C109.223 247.046 113.717 249.57 118.61 251.15C118.901 251.244 119.193 251.334 119.485 251.422C118.832 252.114 118.083 252.684 117.176 253.092C115.827 253.699 114.47 253.794 113.023 253.945C112.993 253.948 112.975 253.983 113.006 254.001C115.041 255.183 117.741 254.476 119.696 253.052C119.699 253.086 119.703 253.119 119.708 253.153C119.761 253.486 120.178 253.624 120.496 253.549C120.615 252.164 121.13 250.858 121.929 249.719C122.479 247.365 121.01 244.037 118.842 243.438Z" fill="#232323"/>
<path d="M88.0146 271.388C88.1435 271.111 88.2748 270.82 88.432 270.552C88.1599 270.708 87.9072 270.904 87.6753 271.13C87.7226 271.224 87.7801 271.317 87.8515 271.407C87.8983 271.466 87.9834 271.455 88.0146 271.388Z" fill="#232323"/>
<path d="M127.622 222.214C127.158 222.552 126.693 222.889 126.231 223.231C126.289 223.877 126.445 224.512 126.687 225.136C127.098 224.826 127.51 224.518 127.923 224.21C127.718 223.54 127.601 222.865 127.622 222.214Z" fill="#232323"/>
<path d="M130.295 220.3C129.565 220.814 128.836 221.331 128.112 221.855C128.032 222.521 128.134 223.21 128.343 223.899C128.777 223.577 129.212 223.257 129.649 222.939C129.692 222.908 129.734 222.879 129.777 222.848C129.815 222.01 130.016 221.145 130.295 220.3Z" fill="#232323"/>
<path d="M134.424 217.469C133.446 218.12 132.476 218.785 131.51 219.454C131.454 220.134 131.589 220.769 131.809 221.397C132.641 220.808 133.476 220.223 134.317 219.647C134.332 219.092 134.37 218.536 134.444 217.989C134.437 217.816 134.431 217.643 134.424 217.469Z" fill="#232323"/>
<path d="M131.103 219.735C131.024 219.791 130.943 219.846 130.864 219.901C130.582 220.757 130.357 221.63 130.296 222.476C130.677 222.202 131.061 221.931 131.443 221.659C131.228 221.028 131.083 220.397 131.103 219.735Z" fill="#232323"/>
<path d="M125.055 249.693C125.509 249.457 125.973 249.248 126.43 249.06C125.275 248.596 123.714 248.912 122.662 249.393C121.833 250.465 121.253 251.712 121.034 253.037C121.233 252.703 121.361 252.334 121.566 251.991C121.611 252.002 121.657 252.012 121.702 252.023C121.625 252.139 121.55 252.257 121.482 252.38C121.343 252.63 121.371 252.911 121.497 253.136C122.061 251.683 123.343 250.629 124.77 249.845C124.624 249.884 124.483 249.927 124.351 249.973C123.873 250.142 123.428 250.374 123.025 250.659C122.968 250.646 122.91 250.636 122.853 250.623C122.938 250.561 123.02 250.497 123.108 250.439C123.764 250.009 124.396 249.807 125.055 249.693Z" fill="#232323"/>
<path d="M123.373 189.685C123.358 189.809 123.372 189.922 123.412 190.022C123.756 189.291 123.812 188.486 123.605 187.709C123.503 187.717 123.401 187.725 123.298 187.732C122.969 187.202 122.407 186.842 121.749 186.811C121.685 186.808 121.624 186.839 121.579 186.884C121.657 187.05 121.732 187.22 121.802 187.395C121.913 187.517 122.01 187.653 122.085 187.799C122.04 187.801 121.995 187.802 121.951 187.804C122.297 188.863 122.358 189.998 121.582 190.881C121.7 190.906 121.826 190.902 121.956 190.861C122.552 190.668 123.085 190.236 123.373 189.685Z" fill="#232323"/>
<path d="M125.744 188.998C125.787 188.993 125.829 188.989 125.872 188.984C125.741 189.163 125.634 189.358 125.602 189.605C125.585 189.729 125.627 189.835 125.698 189.923C126.025 189.177 126.299 188.304 126.243 187.484C126.012 187.507 125.78 187.531 125.549 187.552C125.334 187.122 124.949 186.782 124.487 186.634C124.356 186.592 123.76 186.468 123.733 186.74C123.713 186.937 123.868 187.096 123.955 187.257C124.023 187.385 124.089 187.525 124.139 187.67C124.105 187.673 124.071 187.676 124.037 187.678C124.297 188.571 124.219 189.56 123.776 190.374C123.805 190.386 123.832 190.398 123.863 190.408C124.768 190.686 125.411 189.88 125.637 189.007C125.672 189.004 125.708 189.001 125.744 188.998Z" fill="#232323"/>
<path d="M128.393 187.259C128.279 187.272 128.166 187.286 128.052 187.298C127.955 186.515 127.562 185.84 126.807 185.691C126.618 185.654 126.456 185.756 126.432 185.948C126.403 186.182 126.428 186.41 126.465 186.637C126.915 187.745 126.593 189.087 126.093 190.172C126.153 190.189 126.213 190.202 126.267 190.204C127.065 190.251 127.637 189.6 127.904 188.777C128.014 188.765 128.124 188.752 128.234 188.739C128.241 188.255 128.307 187.759 128.393 187.259Z" fill="#232323"/>
<path d="M174.045 172.697C172.983 172.873 172.084 173.48 171.435 174.312C170.762 175.885 170.579 177.57 171.221 179.212C171.514 179.223 171.8 179.093 171.855 178.773C171.931 178.342 171.921 177.921 171.906 177.501C172.076 177.432 172.245 177.36 172.415 177.289C172.389 176.704 172.495 176.089 172.691 175.478C172.465 175.574 172.239 175.672 172.012 175.766C172.031 175.698 172.051 175.629 172.075 175.56C172.456 174.443 173.206 173.527 174.084 172.757C174.116 172.728 174.078 172.692 174.045 172.697Z" fill="#232323"/>
<path d="M170.393 176.16C170.241 176.232 170.108 176.356 170.031 176.548C170.025 176.562 170.019 176.576 170.013 176.59C169.929 176.624 169.845 176.659 169.761 176.693C169.772 176.32 169.777 175.945 169.844 175.583C169.968 174.9 170.189 174.237 170.478 173.606C170.781 172.948 171.179 172.323 171.595 171.73C172.026 171.118 172.681 170.691 173.075 170.071C173.095 170.04 173.067 170.001 173.032 170.003C171.543 170.105 170.039 171.666 169.274 172.835C168.547 173.947 167.655 175.943 167.938 177.411C155.945 182.057 143.362 185.369 130.639 186.99C130.635 186.849 130.635 186.709 130.646 186.568C130.699 185.847 130.859 185.137 131.12 184.463C131.648 183.099 132.624 182.26 133.464 181.117C133.496 181.074 133.439 181.038 133.4 181.043C131.901 181.273 130.604 182.738 129.918 184.007C129.461 184.855 128.982 186.076 128.957 187.194C128.919 187.198 128.882 187.203 128.844 187.207C128.771 187.706 128.712 188.201 128.712 188.683C128.728 188.681 128.744 188.68 128.76 188.678C129.103 189.425 130.184 190.001 130.923 190.29C132.71 190.991 134.605 191.24 136.509 190.987C137.024 190.919 136.813 190.283 136.395 190.236C135.153 190.095 133.926 189.871 132.735 189.481C132.155 189.291 131.566 189.072 131.026 188.786C130.847 188.691 130.71 188.591 130.597 188.48C130.599 188.472 130.6 188.463 130.602 188.455C139.169 187.363 147.658 185.536 155.933 183.099C160.395 181.785 164.801 180.284 169.138 178.605C168.706 179.514 168.216 180.391 167.597 181.208C166.607 182.516 165.206 183.507 164.292 184.85C164.242 184.923 164.313 185.026 164.398 185.017C166.144 184.82 167.711 183.41 168.811 182.125C169.543 181.269 170.193 180.306 170.673 179.273C170.3 178.247 170.229 177.195 170.393 176.16Z" fill="#232323"/>
<path d="M176.498 172.08C175.699 172.194 175.012 172.536 174.446 173.024C173.364 174.678 172.595 176.665 173.218 178.492C173.236 178.546 173.23 178.595 173.213 178.64C173.582 178.779 174.022 178.709 174.24 178.307C174.415 177.984 174.547 177.675 174.655 177.335C174.617 177.077 174.603 176.822 174.611 176.568C174.572 176.517 174.526 176.471 174.474 176.431C174.523 176.409 174.572 176.387 174.622 176.366C174.673 175.702 174.865 175.053 175.143 174.422C174.962 174.502 174.781 174.583 174.599 174.662C174.998 173.774 175.641 172.972 176.369 172.294C176.417 172.223 176.465 172.153 176.514 172.083L176.498 172.08Z" fill="#232323"/>
<path d="M178.564 171.249C178.087 171.315 177.648 171.522 177.252 171.818C176.299 173.358 175.316 174.793 175.195 176.577C175.498 177.151 176.538 177.317 176.852 176.663L177.222 175.894C177.345 175.639 177.335 175.406 177.248 175.214C177.428 175.134 177.607 175.051 177.786 174.968C177.763 174.362 177.828 173.754 177.958 173.155C177.845 173.208 177.732 173.26 177.619 173.312C177.754 173.088 177.912 172.88 178.074 172.676C178.205 172.192 178.372 171.715 178.564 171.249Z" fill="#232323"/>
<path d="M221.24 149.492C221.168 147.978 220.639 146.593 220.28 145.155C220.177 145.247 220.075 145.341 219.971 145.433C219.781 144.516 219.595 143.619 219.616 142.631C219.646 141.261 219.923 139.934 220.216 138.602C220.227 138.556 220.165 138.523 220.132 138.558C218.239 140.527 217.476 144.108 218.506 146.72C218.134 147.043 217.764 147.365 217.397 147.684C213.758 150.857 209.976 153.867 206.07 156.706C198.202 162.425 189.813 167.431 181.068 171.686C181.003 171.717 180.938 171.747 180.873 171.779C180.874 171.702 180.875 171.625 180.881 171.55C180.931 170.822 181.073 170.107 181.286 169.409C181.717 168.003 182.391 166.682 183.239 165.482C183.255 165.459 183.221 165.433 183.201 165.447C181.806 166.359 180.735 167.587 180.021 169.097C179.588 170.015 179.011 171.382 178.991 172.572C178.838 172.555 178.682 172.58 178.552 172.639C178.377 173.328 178.273 174.028 178.284 174.74C178.34 174.715 178.396 174.689 178.452 174.664C178.95 175.145 179.745 175.461 180.392 175.464C182.117 175.475 184.074 174.758 185.221 173.451C185.299 173.362 185.218 173.234 185.101 173.266C184.047 173.549 183.016 173.869 181.926 173.993C181.459 174.047 180.882 174.125 180.411 174.008C180.549 173.915 180.665 173.79 180.73 173.645C180.737 173.629 180.741 173.611 180.748 173.594C191.218 168.618 201.179 162.575 210.409 155.553C213.519 153.187 216.551 150.711 219.483 148.125C219.556 148.369 219.625 148.615 219.656 148.865C219.739 149.521 219.715 150.2 219.585 150.848C219.453 151.508 219.217 152.144 218.899 152.736C218.628 153.239 218.242 153.681 218.072 154.231C218.039 154.338 218.156 154.415 218.251 154.392C219.896 153.992 221.062 151.718 221.277 149.602C221.257 149.573 221.243 149.539 221.24 149.492Z" fill="#232323"/>
<path d="M222.473 147.212C222.396 145.925 222.206 144.732 221.836 143.499C221.563 143.188 221.191 143.022 220.686 143.101C220.357 143.152 220.368 143.547 220.599 143.7C220.825 143.85 220.931 144.176 220.982 144.521C220.862 144.631 220.74 144.739 220.62 144.848C220.952 145.899 221.338 146.928 221.541 148.001C221.947 148.057 222.374 147.907 222.441 147.466C222.45 147.404 222.459 147.336 222.467 147.264L222.471 147.264C222.47 147.258 222.47 147.251 222.47 147.245C222.471 147.235 222.472 147.223 222.473 147.212Z" fill="#232323"/>
<path d="M223.727 141.787C223.583 141.945 223.441 142.106 223.293 142.261C223.018 142.005 222.671 141.86 222.289 142.027C222.262 142.038 222.235 142.075 222.239 142.105C222.281 142.447 222.423 142.74 222.517 143.054C222.426 143.144 222.334 143.233 222.242 143.323C222.686 144.414 222.878 145.547 222.943 146.719C223.423 146.744 223.931 146.497 223.857 145.977C223.937 145.303 224.074 144.6 224.021 143.921C224.067 143.874 224.112 143.827 224.159 143.78C224.158 143.794 224.156 143.808 224.156 143.822C224.151 144.175 224.409 144.402 224.714 144.475C224.644 143.535 224.285 142.534 223.727 141.787Z" fill="#232323"/>
<path d="M214.204 120.395C213.977 120.457 213.758 120.567 213.553 120.714C213.564 120.69 213.557 120.664 213.536 120.651C212.829 121.733 212.338 123.061 213.253 124.099C213.423 124.023 213.556 123.871 213.566 123.66C213.581 123.361 213.545 123.092 213.527 122.825C213.577 122.813 213.629 122.803 213.68 122.792C213.47 121.995 213.713 121.088 214.204 120.395Z" fill="#232323"/>
<path d="M212.308 123.716C212.113 123.578 212.036 123.388 212.04 123.17C212.116 123.152 212.192 123.133 212.268 123.116C212.2 122.32 212.568 121.447 213.054 120.705C212.287 120.879 211.599 121.401 211.148 122.048C210.883 122.111 210.618 122.173 210.354 122.239C210.33 122.343 210.288 122.452 210.222 122.564C209.999 122.949 209.767 123.323 209.512 123.677C209.489 123.712 209.467 123.75 209.445 123.786C209.442 123.792 209.438 123.799 209.434 123.806C209.845 123.701 210.256 123.6 210.668 123.499C210.687 124.122 211.031 124.655 211.841 124.731C212.337 124.777 212.776 124.049 212.308 123.716Z" fill="#232323"/>
<path d="M232.633 139.912C231.755 140.709 230.834 141.43 229.656 141.709C228.628 141.953 227.781 141.693 226.844 141.523C226.81 141.312 226.768 141.102 226.717 140.895C228.33 138.829 229.618 136.541 230.148 133.974C231.005 129.835 229.958 125.284 226.366 122.758C223.348 120.636 219.49 120.566 215.92 121.085C216.041 120.536 216.192 120.013 216.564 119.515C217.194 118.667 218.082 118.361 219.034 118.017C219.078 118.001 219.084 117.943 219.034 117.93C217.611 117.542 215.913 118.44 215.018 119.737C215.083 119.792 215.113 119.894 215.038 119.958C214.91 120.065 214.795 120.183 214.691 120.307C214.686 120.319 214.678 120.33 214.673 120.342H214.666C214.531 120.506 214.421 120.681 214.331 120.865C214.405 120.789 214.48 120.714 214.556 120.637C214.478 120.868 214.424 121.103 214.404 121.341C214.317 121.357 214.229 121.374 214.142 121.391L214.138 121.391C214.033 121.817 214.039 122.264 214.163 122.689C214.189 122.683 214.214 122.678 214.24 122.672C214.507 123.296 215.154 123.842 215.68 124.138C216.466 124.579 217.461 124.734 218.242 124.217C218.299 124.179 218.286 124.11 218.223 124.088C217.583 123.868 216.907 123.606 216.376 123.179C216.121 122.974 215.889 122.732 215.711 122.457C215.7 122.441 215.69 122.424 215.68 122.407C219.274 121.821 223.237 121.813 226.056 124.238C229.665 127.34 229.294 132.968 227.291 136.841C226.953 137.495 226.575 138.123 226.165 138.731C226.136 138.56 226.11 138.388 226.095 138.212C226.007 137.184 226.397 135.877 226.026 134.921C226.019 134.903 225.995 134.892 225.977 134.903C225.012 135.497 224.81 136.996 224.715 138.035C224.667 138.558 224.662 139.168 224.728 139.778C225.338 140.756 226.064 141.789 226.325 142.899C226.335 142.938 226.34 142.977 226.348 143.016C228.683 144 232.086 142.356 232.763 139.981C232.785 139.906 232.683 139.866 232.633 139.912Z" fill="#232323"/>
<path d="M225.309 144.417C225.575 144.284 225.763 144.07 225.89 143.814C225.945 143.265 225.842 142.696 225.55 142.083C225.295 141.548 224.98 141.049 224.697 140.532C224.436 140.417 224.153 140.358 223.857 140.384C223.575 140.409 223.37 140.704 223.604 140.934C223.76 141.089 223.926 141.243 224.073 141.409C224.046 141.439 224.019 141.468 223.992 141.498C224.464 142.067 224.79 142.801 224.959 143.452C225.028 143.718 225.12 144.088 225.174 144.468C225.221 144.455 225.266 144.439 225.309 144.417Z" fill="#232323"/>
<path d="M97.6292 143.429C97.8581 143.187 98.1049 142.971 98.3755 142.796C98.3082 142.944 98.243 143.094 98.1775 143.243C98.7577 142.984 99.3742 142.815 100.003 142.741C100.052 142.632 100.099 142.522 100.148 142.414C100.525 142.502 100.878 142.65 101.291 142.63C101.591 142.615 102.042 142.32 101.868 141.948C101.654 141.49 101.212 141.262 100.716 141.184C100.773 141.063 100.829 140.944 100.885 140.823C100.288 140.854 99.7058 140.944 99.1444 141.118C99.1003 141.214 99.0554 141.31 99.011 141.405C98.2043 141.748 97.4982 142.463 97.4961 143.379C97.4952 143.443 97.5869 143.474 97.6292 143.429Z" fill="#232323"/>
<path d="M107.53 93.3232C106.851 92.6317 105.667 92.0581 104.672 92.2028C104.668 92.1923 104.667 92.1822 104.662 92.1718C104.256 91.1924 103.689 90.511 103.718 89.3792C103.748 88.1837 104.397 87.0933 105.301 86.347C105.355 86.3024 105.28 86.2268 105.226 86.2604C104.157 86.9234 103.405 87.9033 103.175 89.1586C102.977 90.2342 103.145 91.7541 104.008 92.5147C104.064 92.5638 104.139 92.5906 104.219 92.5993C104.226 92.771 104.344 92.9493 104.54 93.0205C104.917 93.1562 105.321 93.1747 105.701 93.3066C106.15 93.4623 106.569 93.7221 106.94 94.0156C107.641 94.5708 108.318 95.3722 108.489 96.2637C108.496 96.3027 108.568 96.295 108.566 96.2545C108.487 95.1257 108.36 94.1684 107.53 93.3232Z" fill="#232323"/>
<path d="M180.748 68.6254C180.704 68.2241 180.691 67.7654 180.438 67.4373C180.26 67.2057 179.713 67.1537 179.65 67.5299C179.574 67.9872 179.766 68.3887 179.946 68.807C180.102 69.1675 180.254 69.5798 180.561 69.837C180.608 69.8766 180.677 69.8596 180.701 69.8039C180.853 69.4443 180.79 69.0049 180.748 68.6254Z" fill="#232323"/>
<path d="M128.789 166.37C129.068 165.149 128.931 163.788 128.55 162.558C128.564 162.748 128.575 162.938 128.572 163.125C128.57 163.245 128.562 163.363 128.552 163.48C128.515 163.43 128.473 163.387 128.426 163.351C128.551 162.203 127.543 160.838 126.752 160.161C125.724 159.282 124.407 158.795 123.062 159.094C123.012 159.105 123.017 159.168 123.062 159.181C124.168 159.517 125.185 160.129 125.901 161.051C126.223 161.465 126.483 161.912 126.641 162.414C126.802 162.922 126.748 163.44 127.057 163.885C127.09 163.932 127.13 163.974 127.175 164.012C127.053 164.505 127.072 165.034 127.006 165.541C126.912 166.272 126.734 166.99 126.535 167.698C126.269 168.646 125.373 169.94 125.571 170.923C125.579 170.957 125.624 170.973 125.654 170.965C126.804 170.661 127.452 169.03 127.886 168.034C128.091 167.566 128.321 166.979 128.499 166.363C128.591 166.383 128.69 166.383 128.789 166.37Z" fill="#232323"/>
<path d="M129.42 160.502C129.363 160.452 129.26 160.494 129.28 160.575C129.412 161.114 129.541 161.643 129.552 162.195C129.39 161.714 129.143 161.296 128.79 161.016C128.727 160.966 128.608 160.975 128.584 161.065C128.546 161.207 128.526 161.352 128.516 161.498C129.178 162.88 129.551 164.588 129.292 166.118C129.334 166.071 129.372 166.022 129.398 165.964C129.563 165.594 129.684 165.117 129.747 164.604C129.854 164.574 129.952 164.522 130.011 164.451C130.907 163.386 130.395 161.344 129.42 160.502Z" fill="#232323"/>
<path d="M97.7612 200.991C97.6739 200.198 97.1792 199.514 96.9348 198.752C96.6832 197.968 96.5192 197.164 96.4746 196.34C96.3814 194.648 96.7306 192.973 97.3804 191.414C97.4081 191.347 97.3024 191.327 97.2682 191.371C96.1569 192.811 95.572 194.526 95.4848 196.341C95.413 197.83 95.5696 200.32 96.7964 201.351C97.0929 201.6 97.8159 201.493 97.7612 200.991Z" fill="#232323"/>
<path d="M101.883 203.024C101.12 202.137 99.2793 200.657 98.0606 201.369C97.7909 201.526 97.6179 201.889 97.826 202.174C98.185 202.667 98.5902 202.682 99.1385 202.88C99.7559 203.103 100.29 203.463 100.772 203.903C101.797 204.836 102.324 205.929 102.546 207.284C102.605 207.647 103.152 207.512 103.194 207.205C103.396 205.737 102.841 204.139 101.883 203.024Z" fill="#232323"/>
<path d="M96.0569 202.73C96.0554 202.666 96.0536 202.602 96.0545 202.538C96.1123 202.758 96.192 202.977 96.2947 203.194C96.5945 203.719 96.9758 204.194 97.4241 204.588C97.9055 204.95 98.4741 205.179 99.0554 205.125C99.6392 205.069 99.922 204.422 99.3719 204.073C98.7063 203.652 98.013 203.449 97.4355 202.869C97.3069 202.74 97.189 202.597 97.0785 202.447C96.615 202.085 96.2328 201.658 95.9997 201.16C95.9965 201.178 95.9911 201.195 95.9884 201.213C95.8673 201.304 95.7586 201.405 95.6592 201.512C95.7449 201.932 95.8792 202.341 96.0569 202.73Z" fill="#232323"/>
<path d="M95.1303 203.691C95.074 203.908 95.0437 204.122 95.0317 204.332C95.0576 204.448 95.088 204.563 95.1243 204.676C95.094 204.711 95.0657 204.748 95.0371 204.785C95.071 205.169 95.1755 205.538 95.3354 205.887C95.3154 205.661 95.3166 205.432 95.344 205.208C95.9578 206.414 97.5981 207.7 98.9743 207.144C99.3389 206.997 99.3874 206.476 99.1046 206.235C98.7328 205.917 98.3453 205.883 97.9098 205.689C97.334 205.432 96.8539 204.994 96.5214 204.46C96.4773 204.389 96.4377 204.318 96.4011 204.245C95.8703 203.585 95.4804 202.813 95.3003 202.018C95.0556 202.467 94.9457 202.985 94.9448 203.51C95.0413 203.497 95.1598 203.577 95.1303 203.691Z" fill="#232323"/>
<path d="M98.2175 209.237C98.2252 209.221 98.2297 209.204 98.2362 209.188C96.5555 208.476 95.0219 206.973 94.7132 205.288C94.3312 206.028 94.272 206.889 94.6474 207.744C94.6706 207.797 94.6977 207.849 94.7251 207.902C93.4349 208.373 92.4091 209.71 91.8685 210.914C91.2243 212.347 91.2071 213.86 91.8423 215.286C91.8685 215.344 91.973 215.345 91.9745 215.27C91.9962 213.97 92.3469 212.616 92.992 211.488C93.6647 210.31 94.5861 209.773 95.572 208.946C95.8479 209.179 96.1593 209.372 96.4865 209.498C96.7725 210.004 97.1351 210.468 97.4289 210.975C97.8558 211.712 98.213 212.495 98.508 213.294C99.0659 214.804 99.2007 216.353 99.5859 217.897C99.638 218.106 99.9804 218.095 100.039 217.897C100.497 216.347 100.217 214.504 99.8125 212.971C99.5014 211.794 98.995 210.325 98.2175 209.237Z" fill="#232323"/>
<path d="M125.763 223.258C125.734 223.335 125.706 223.413 125.682 223.492C125.61 223.722 125.554 223.978 125.519 224.244C125.457 224.284 125.4 224.33 125.352 224.384C124.276 221.662 119.515 220.861 117.8 223.315C117.744 223.394 117.856 223.455 117.922 223.425C119.227 222.838 120.55 222.377 121.952 222.951C123.217 223.47 123.654 224.455 124.408 225.48C124.544 225.666 124.826 225.752 125.076 225.724C124.963 226.77 124.845 227.766 124.409 228.8C123.875 230.063 122.999 231.131 122.284 232.292C122.258 232.336 122.307 232.389 122.354 232.373C124.375 231.682 125.969 229.397 126.475 227.105C126.681 227.201 126.955 227.198 127.161 227.104C126.335 225.923 125.845 224.603 125.763 223.258Z" fill="#232323"/>
<path d="M126.669 223.858C126.73 222.956 127.122 222.174 127.702 221.516C127.729 221.385 127.762 221.257 127.803 221.13C127.139 221.362 126.602 221.818 126.213 222.39C126.144 223.866 126.607 225.282 127.451 226.654C127.447 226.605 127.439 226.553 127.42 226.497C127.106 225.568 126.598 224.903 126.669 223.858Z" fill="#232323"/>
<path d="M128.132 221.701C127.896 223.141 128.551 224.696 129.312 226.139C129.473 225.969 129.565 225.735 129.514 225.482C129.338 224.612 128.993 223.931 129.105 223.011C129.201 222.225 129.541 221.441 129.844 220.722C129.891 220.612 129.746 220.519 129.652 220.548C129.026 220.741 128.511 221.162 128.132 221.701Z" fill="#232323"/>
<path d="M127.631 222.697C127.226 223.887 127.349 225.282 128.177 226.183C128.372 226.395 128.63 226.449 128.868 226.395C128.238 225.237 127.714 223.937 127.631 222.697Z" fill="#232323"/>
<path d="M130.234 220.491C130.109 220.684 130.005 220.877 129.928 221.05C129.558 221.89 129.352 223.183 129.849 224.043C129.647 222.914 129.857 221.687 130.234 220.491Z" fill="#232323"/>
<path d="M133.637 217.422C133.773 217.216 133.466 217.078 133.312 217.197C132.592 217.751 132.089 218.416 131.782 219.248C131.695 219.262 131.61 219.288 131.526 219.32C131.386 220.492 131.827 221.526 132.307 222.615C132.599 222.635 132.887 222.457 132.928 222.1C133.011 221.351 132.675 220.614 132.747 219.84C132.826 218.987 133.17 218.132 133.637 217.422Z" fill="#232323"/>
<path d="M131.13 221.471C131.16 221.32 131.202 221.166 131.252 221.013C131.135 220.532 131.078 220.045 131.118 219.539C131.057 219.582 130.997 219.627 130.939 219.676C130.361 221.373 129.972 223.147 130.609 224.672C131.023 224.752 131.524 224.571 131.493 224.074C131.436 223.156 130.942 222.439 131.13 221.471Z" fill="#232323"/>
</g>
<defs>
<clipPath id="clip0_35_3998">
<rect width="299.45" height="347.95" fill="white"/>
</clipPath>
</defs>
</svg>
