<svg width="96" height="98" viewBox="0 0 96 98" fill="none" xmlns="http://www.w3.org/2000/svg">
<path d="M55.2672 46.529C56.1332 47.8995 56.8282 49.6219 56.3473 49.9603C55.8664 50.2988 54.7381 49.3394 53.9463 48.2073C53.1535 47.0808 49.0824 56.8956 48.7681 57.3728C48.5324 57.7308 45.3284 60.3305 43.4246 63.0002C42.79 63.89 42.348 66.8312 42.1438 66.9749C41.3203 67.5545 40.4407 67.3264 38.8115 65.2913C37.1822 63.2562 34.4221 73.2121 36.4393 75.2106C39.8859 78.6313 45.8396 90.877 56.2049 92.6791C68.1977 94.7643 81.4787 84.1861 83.075 75.0049C84.6713 65.8237 82.5825 61.8759 84.0998 54.2131C85.3785 47.7229 90.6612 45.4384 91.2271 42.1834C91.7033 39.4448 87.7507 38.0695 86.415 37.8373C84.0468 37.4256 77.4467 39.4059 76.0573 47.3974C75.5167 50.5064 74.1412 53.1639 70.9592 52.6106C67.7772 52.0574 64.9839 47.0737 63.4268 43.2935" fill="url(#paint0_linear_5_411)"/>
<path d="M91.2215 42.1824C91.4801 40.6952 90.4257 39.61 89.1983 38.8878C89.8669 44.3868 81.8308 43.2208 78.7358 61.0221C75.6408 78.8233 64.3749 82.201 59.9266 82.3469C55.4792 82.4871 47.8694 81.43 43.3399 73.3634C41.9498 70.8842 39.9632 68.1106 37.6849 65.4192C36.23 67.1031 34.8461 73.6327 36.4393 75.2106C39.8859 78.6313 45.8396 90.877 56.2049 92.6791C68.1977 94.7642 81.4787 84.1861 83.075 75.0049C84.6713 65.8236 82.5825 61.8759 84.0998 54.2131C85.3785 47.7229 90.6556 45.4374 91.2215 42.1824Z" fill="url(#paint1_linear_5_411)"/>
<path d="M38.8115 65.2912C37.1822 63.2561 33.4739 57.6161 30.9235 54.727C28.3721 51.8436 25.7801 51.4218 23.5464 53.7277C21.3127 56.0336 25.7001 61.5258 26.6783 62.9158C28.1759 65.0436 34.4221 73.2121 36.4383 75.2162" fill="url(#paint2_linear_5_411)"/>
<path d="M48.7681 57.3729C48.4539 57.8501 46.8818 57.9468 44.4472 54.1587C42.5861 51.2623 37.689 43.0161 34.6295 39.1308C31.5701 35.2456 28.9851 33.4201 26.3202 34.7144C23.6554 36.0087 24.3856 39.7896 26.5193 43.2133C29.1595 47.4478 32.2809 51.841 35.265 56.0601C37.6 59.3569 42.9607 66.4001 42.1372 66.9796" fill="url(#paint3_linear_5_411)"/>
<path d="M35.2715 56.0554C37.4767 59.1677 42.3697 65.6093 42.2236 66.8154C43.2937 65.6485 42.4351 61.4752 41.0457 59.8229C33.0167 50.2691 26.1507 35.9222 24.9283 36.1028C24.1115 37.8745 24.9199 40.6399 26.5192 43.2133C29.1605 47.4421 32.2809 51.841 35.2715 56.0554Z" fill="url(#paint4_linear_5_411)"/>
<path d="M63.4203 43.2981C61.8631 39.5179 54.9569 27.0314 53.3537 23.5497C51.7448 20.0669 48.8603 19.5654 46.6175 20.6266C44.3747 21.6879 43.291 24.3961 46.7527 31.1554C48.9367 35.4203 50.6907 39.2984 55.2719 46.5356L61.9404 47.2209L63.4203 43.2981Z" fill="url(#paint5_linear_5_411)"/>
<path d="M53.9463 48.2073C53.1535 47.0808 46.3945 35.5103 44.8462 33.0094C41.9421 28.3301 38.8778 18.8532 32.7507 21.7714C29.5297 23.3044 30.572 26.521 31.1799 27.8466C31.7877 29.1722 40.2478 43.2297 41.1065 44.4428C41.9642 45.6615 49.0834 56.8899 48.7747 57.3682" fill="url(#paint6_linear_5_411)"/>
<path d="M55.2672 46.5291C56.1018 47.8478 56.7711 49.4848 56.3964 49.9111C60.311 47.7471 54.4599 38.3696 51.1933 32.7832C48.667 28.4587 48.6313 23.5092 46.7998 20.5428C46.7378 20.5667 46.6804 20.5972 46.6185 20.6211C44.3757 21.6824 43.292 24.3905 46.7537 31.1498C48.932 35.4138 50.6907 39.2984 55.2672 46.5291Z" fill="url(#paint7_linear_5_411)"/>
<path d="M41.0999 44.4474C41.9576 45.6661 49.0768 56.8945 48.7682 57.3728C52.1271 54.1814 43.449 41.5776 39.2885 35.2461C35.6812 29.7566 35.6417 25.4944 31.7235 22.4254C29.7809 24.0881 30.6411 26.689 31.1733 27.8512C31.7812 29.1768 40.2468 43.2352 41.0999 44.4474Z" fill="url(#paint8_linear_5_411)"/>
<path d="M48.5335 57.558C48.1917 57.6952 47.5546 57.6017 46.6711 56.8642C47.2982 57.5803 47.9326 57.9219 48.5335 57.558Z" fill="url(#paint9_linear_5_411)"/>
<path d="M86.8448 39.0568C89.1767 39.046 89.5302 39.3734 89.1984 38.8878C88.1696 38.2869 87.0155 37.9417 86.4094 37.8363C84.0412 37.4246 77.4411 39.4049 76.0517 47.3964C75.5112 50.5055 74.1356 53.1629 70.948 52.6087C69.6909 52.3901 68.5014 51.4837 67.4182 50.2316C71.9316 57.3934 77.3283 52.3246 78.6908 48.445C80.0534 44.5654 80.0046 39.0932 86.8448 39.0568Z" fill="url(#paint10_radial_5_411)"/>
<path d="M45.8284 21.1082C44.1756 22.4339 43.7327 25.2477 46.748 31.1489C48.932 35.4138 50.686 39.2918 55.2672 46.5291C56.1332 47.8996 56.8282 49.6219 56.3473 49.9604C58.4217 43.649 50.3086 35.6763 48.1607 30.2728C46.4601 25.9878 46.3858 23.6218 45.8284 21.1082Z" fill="url(#paint11_linear_5_411)"/>
<path d="M41.0999 44.4474C41.9576 45.6661 49.0768 56.8946 48.7682 57.3728C50.9509 56.3242 50.0021 53.9334 47.5217 50.4089C42.4357 43.1822 35.3044 33.4202 33.0432 26.0082C32.8299 25.3062 32.3068 24.7238 31.6097 24.5101C29.794 23.9458 30.7131 26.8403 31.1789 27.8522C31.7812 29.1768 40.2468 43.2353 41.0999 44.4474Z" fill="url(#paint12_linear_5_411)"/>
<path d="M26.5193 43.2133C29.1595 47.4477 32.281 51.841 35.265 56.0601C37.6 59.3569 42.9607 66.4001 42.1372 66.9796C46.6789 64.3349 30.372 49.0866 24.9217 36.1074C24.1125 37.8689 24.92 40.6399 26.5193 43.2133Z" fill="url(#paint13_linear_5_411)"/>
<path d="M41.214 67.5012C41.6154 67.4207 41.842 67.2809 41.9369 67.1008C41.1671 67.5047 40.307 67.1643 38.8115 65.2912C37.1822 63.2561 33.4739 57.6161 30.9235 54.727C29.802 53.4624 28.6735 52.6707 27.5687 52.3745C28.999 53.6581 28.1902 53.8875 31.2833 57.2468C32.9469 59.0508 38.6003 68.0355 41.214 67.5012Z" fill="url(#paint14_linear_5_411)"/>
<path d="M39.6396 48.9229C41.6876 52.5398 45.8524 58.6466 48.3817 57.6005C47.716 57.7044 46.3455 57.1077 44.4529 54.1596C42.5918 51.2631 37.6946 43.017 34.6352 39.1317C32.1587 35.9838 29.9902 34.1903 27.8421 34.3082C33.509 37.3286 37.6959 45.5033 39.6396 48.9229Z" fill="url(#paint15_linear_5_411)"/>
<path d="M44.8192 35.7915C48.182 41.0245 52.7821 51.046 56.1745 50.0228C55.6365 50.0911 54.6546 49.2208 53.9463 48.2073C53.1535 47.0808 46.3944 35.5103 44.8461 33.0094C42.8311 29.7682 40.7478 24.2257 37.6143 22.0967C40.5729 25.3979 42.0928 31.5536 44.8192 35.7915Z" fill="url(#paint16_linear_5_411)"/>
<path d="M67.4172 50.2372C67.4228 50.2382 67.4228 50.2382 67.4172 50.2372C65.7563 48.318 64.3585 45.5831 63.4146 43.2971C61.8631 39.5179 54.9569 27.0315 53.3536 23.5497C52.8619 22.4871 52.2578 21.7056 51.5836 21.1605C52.3327 22.7709 52.5434 24.9178 54.364 27.8476C57.2819 32.5467 60.7498 40.7004 61.9392 43.5031C63.1249 46.2937 64.8283 52.0593 67.4172 50.2372Z" fill="url(#paint17_linear_5_411)"/>
<path d="M73.0105 88.4318C72.2335 84.9202 70.611 82.5799 67.4398 83.9596C58.7896 87.7227 50.1614 84.4418 40.5384 73.4487C31.9587 63.6373 27.7987 56.9705 23.3017 54.0378C21.6729 56.4894 25.7362 61.5841 26.6727 62.9148C28.1702 65.0426 34.4165 73.2111 36.4327 75.2152C39.8793 78.6359 45.833 90.8816 56.1983 92.6838C61.9965 93.6861 68.0812 91.7433 73.0105 88.4318Z" fill="url(#paint18_linear_5_411)"/>
<path d="M84.0942 54.2121C85.3729 47.7219 90.6556 45.4374 91.2215 42.1824C91.3884 41.2228 91.0108 40.4344 90.3925 39.8008C90.8157 42.4877 88.3649 44.38 84.6241 47.6727C80.5695 51.2404 78.7152 57.5495 79.8847 64.3902C81.0599 71.2318 76.6252 79.6131 71.4728 81.6139C66.3204 83.6146 57.9752 94.9007 42.6643 77.8482C42.6597 77.8416 42.6597 77.8416 42.655 77.835C41.7466 76.6421 40.8298 75.5635 39.8638 74.7017C33.1787 68.758 29.6339 63.8402 27.0168 59.7716C26.5027 58.9711 25.2562 56.0312 23.0734 56.5479C23.6892 59.0254 25.9958 61.953 26.6727 62.9148C28.1702 65.0427 34.4165 73.2111 36.4327 75.2152C36.6941 75.4746 36.9747 75.7893 37.2653 76.1463C37.3414 76.2405 37.4175 76.3347 37.4937 76.4288C37.5122 76.4552 37.5364 76.4825 37.5559 76.5033C37.6032 76.5635 37.6552 76.6304 37.7026 76.6906C37.7118 76.7038 37.7267 76.718 37.735 76.7368C39.6961 79.2574 42.2917 83.3164 45.745 86.7325C45.745 86.7325 45.7506 86.7334 45.7496 86.739C46.05 87.0399 46.3625 87.3371 46.6771 87.623C46.6817 87.6296 46.6873 87.6306 46.6919 87.6372C47.0065 87.9231 47.3276 88.2044 47.6507 88.4745C47.6563 88.4755 47.6553 88.4811 47.6609 88.4821C50.1059 90.5144 52.9322 92.1159 56.1871 92.6818C68.1799 94.7669 81.4609 84.1888 83.0572 75.0076C84.6535 65.8263 82.5815 61.8815 84.0942 54.2121Z" fill="url(#paint19_radial_5_411)"/>
<defs>
<linearGradient id="paint0_linear_5_411" x1="73.0607" y1="98.0565" x2="67.2037" y2="73.1852" gradientUnits="userSpaceOnUse">
<stop offset="0.00132565" stop-color="#FFCB4B"/>
<stop offset="1" stop-color="#FFD748"/>
</linearGradient>
<linearGradient id="paint1_linear_5_411" x1="77.8272" y1="82.2954" x2="61.3984" y2="53.9666" gradientUnits="userSpaceOnUse">
<stop offset="0.00132565" stop-color="#FFCB4B"/>
<stop offset="1" stop-color="#FFD748"/>
</linearGradient>
<linearGradient id="paint2_linear_5_411" x1="25.2863" y1="56.2017" x2="35.937" y2="67.3196" gradientUnits="userSpaceOnUse">
<stop offset="0.00132565" stop-color="#FFCB4B"/>
<stop offset="1" stop-color="#FFD748"/>
</linearGradient>
<linearGradient id="paint3_linear_5_411" x1="24.9778" y1="31.6225" x2="42.5089" y2="57.7787" gradientUnits="userSpaceOnUse">
<stop offset="0.00132565" stop-color="#FFCB4B"/>
<stop offset="1" stop-color="#FFD748"/>
</linearGradient>
<linearGradient id="paint4_linear_5_411" x1="39.1138" y1="47.8025" x2="30.8692" y2="53.2444" gradientUnits="userSpaceOnUse">
<stop stop-color="#FFBC47" stop-opacity="0"/>
<stop offset="1" stop-color="#FFA754"/>
</linearGradient>
<linearGradient id="paint5_linear_5_411" x1="49.9654" y1="25.0644" x2="59.0041" y2="46.7699" gradientUnits="userSpaceOnUse">
<stop offset="0.00132565" stop-color="#FFCB4B"/>
<stop offset="1" stop-color="#FFD748"/>
</linearGradient>
<linearGradient id="paint6_linear_5_411" x1="36.5631" y1="26.079" x2="49.4771" y2="51.8139" gradientUnits="userSpaceOnUse">
<stop offset="0.00132565" stop-color="#FFCB4B"/>
<stop offset="1" stop-color="#FFD748"/>
</linearGradient>
<linearGradient id="paint7_linear_5_411" x1="56.1581" y1="32.3204" x2="43.825" y2="40.0905" gradientUnits="userSpaceOnUse">
<stop stop-color="#FFBC47" stop-opacity="0"/>
<stop offset="1" stop-color="#FFA754"/>
</linearGradient>
<linearGradient id="paint8_linear_5_411" x1="45.1606" y1="37.4716" x2="28.6402" y2="45.6387" gradientUnits="userSpaceOnUse">
<stop stop-color="#FFBC47" stop-opacity="0"/>
<stop offset="1" stop-color="#FFA754"/>
</linearGradient>
<linearGradient id="paint9_linear_5_411" x1="53.4825" y1="54.306" x2="36.962" y2="62.473" gradientUnits="userSpaceOnUse">
<stop stop-color="#FFBC47" stop-opacity="0"/>
<stop offset="1" stop-color="#FFA754"/>
</linearGradient>
<radialGradient id="paint10_radial_5_411" cx="0" cy="0" r="1" gradientUnits="userSpaceOnUse" gradientTransform="translate(75.74 40.2533) rotate(9.86306) scale(17.8606 17.8606)">
<stop stop-color="#FFBC47" stop-opacity="0"/>
<stop offset="1" stop-color="#FFA754"/>
</radialGradient>
<linearGradient id="paint11_linear_5_411" x1="58.4374" y1="30.7695" x2="47.8648" y2="37.6255" gradientUnits="userSpaceOnUse">
<stop offset="0.3118" stop-color="#FFBC47" stop-opacity="0"/>
<stop offset="1" stop-color="#FF8900"/>
</linearGradient>
<linearGradient id="paint12_linear_5_411" x1="50.6698" y1="34.1313" x2="36.7982" y2="42.8542" gradientUnits="userSpaceOnUse">
<stop offset="0.3118" stop-color="#FFBC47" stop-opacity="0"/>
<stop offset="1" stop-color="#FF8900"/>
</linearGradient>
<linearGradient id="paint13_linear_5_411" x1="44.5843" y1="45.1167" x2="27.6167" y2="54.9791" gradientUnits="userSpaceOnUse">
<stop offset="0.3118" stop-color="#FFBC47" stop-opacity="0"/>
<stop offset="1" stop-color="#FF8900"/>
</linearGradient>
<linearGradient id="paint14_linear_5_411" x1="26.8586" y1="51.3422" x2="41.6374" y2="68.3258" gradientUnits="userSpaceOnUse">
<stop stop-color="#FFBC47" stop-opacity="0"/>
<stop offset="1" stop-color="#FFBC47"/>
</linearGradient>
<linearGradient id="paint15_linear_5_411" x1="33.1681" y1="34.5727" x2="43.0517" y2="57.3402" gradientUnits="userSpaceOnUse">
<stop stop-color="#FFBC47" stop-opacity="0"/>
<stop offset="1" stop-color="#FFBC47"/>
</linearGradient>
<linearGradient id="paint16_linear_5_411" x1="43.4387" y1="37.8621" x2="47.716" y2="35.6314" gradientUnits="userSpaceOnUse">
<stop stop-color="#FFBC47" stop-opacity="0"/>
<stop offset="1" stop-color="#FFA754"/>
</linearGradient>
<linearGradient id="paint17_linear_5_411" x1="60.0859" y1="52.5074" x2="59.2222" y2="27.6475" gradientUnits="userSpaceOnUse">
<stop stop-color="#FFBC47" stop-opacity="0"/>
<stop offset="1" stop-color="#FFBC47"/>
</linearGradient>
<linearGradient id="paint18_linear_5_411" x1="44.5925" y1="73.5287" x2="35.8351" y2="79.156" gradientUnits="userSpaceOnUse">
<stop offset="0.3118" stop-color="#FFBC47" stop-opacity="0"/>
<stop offset="1" stop-color="#FF8900"/>
</linearGradient>
<radialGradient id="paint19_radial_5_411" cx="0" cy="0" r="1" gradientUnits="userSpaceOnUse" gradientTransform="translate(53.5813 51.4621) rotate(58.0031) scale(51.7701 46.991)">
<stop offset="0.6134" stop-color="#FFBC47" stop-opacity="0"/>
<stop offset="1" stop-color="#FF8900"/>
</radialGradient>
</defs>
</svg>
